<svg width="50" height="50" viewBox="0 0 50 50" fill="none" xmlns="http://www.w3.org/2000/svg">
<g clip-path="url(#clip0_159:3492)">
<path d="M10.2271 22.456C10.1912 24.3952 10.5414 26.3223 11.2573 28.1249C11.9732 29.9275 13.0405 31.5697 14.3971 32.956C16.9113 35.6335 18.2707 39.1931 18.1811 42.865V44.32C18.1814 45.8268 18.7801 47.2717 19.8457 48.3371C20.9112 49.4025 22.3563 50.001 23.8631 50.001H26.1361C27.6431 50.001 29.0883 49.4023 30.1539 48.3368C31.2195 47.2712 31.8181 45.8259 31.8181 44.319V42.456C31.7869 38.9627 33.1202 35.5952 35.5341 33.07C37.6105 30.9566 39.0036 28.2678 39.5322 25.3526C40.0609 22.4374 39.7009 19.4306 38.4988 16.7227C37.2968 14.0147 35.3083 11.7308 32.7916 10.1674C30.2749 8.6041 27.3463 7.83359 24.3861 7.95597C20.6367 8.15401 17.0989 9.75527 14.4757 12.4416C11.8525 15.128 10.3359 18.7029 10.2271 22.456ZM24.8411 38.637L22.9211 26.137H27.0801L25.1601 38.637H24.8411ZM29.6141 40.91C29.6141 41.421 29.5461 41.933 29.5461 42.456V43.183H20.4541V42.865C20.4504 42.2121 20.4124 41.5599 20.3401 40.911L29.6141 40.91ZM26.1361 47.725H23.8631C23.1605 47.7221 22.476 47.5021 21.9032 47.0952C21.3303 46.6884 20.8972 46.1144 20.6631 45.452H29.3451C29.111 46.1144 28.6779 46.6884 28.1051 47.0952C27.5323 47.5021 26.8477 47.7221 26.1451 47.725H26.1361ZM24.4771 10.225H25.0001C27.4612 10.2263 29.8671 10.9541 31.9162 12.3171C33.9653 13.6801 35.5665 15.6176 36.5191 17.8869C37.4716 20.1561 37.7331 22.656 37.2708 25.0732C36.8084 27.4905 35.6428 29.7174 33.9201 31.475C31.9809 33.4544 30.6278 35.9324 30.0111 38.634H27.4631L29.3831 26.134H30.6831C30.9845 26.134 31.2736 26.0142 31.4867 25.8011C31.6999 25.588 31.8196 25.2989 31.8196 24.9975C31.8196 24.6961 31.6999 24.407 31.4867 24.1938C31.2736 23.9807 30.9845 23.861 30.6831 23.861H19.3181C19.0167 23.861 18.7276 23.9807 18.5145 24.1938C18.3014 24.407 18.1816 24.6961 18.1816 24.9975C18.1816 25.2989 18.3014 25.588 18.5145 25.8011C18.7276 26.0142 19.0167 26.134 19.3181 26.134H20.6181L22.5381 38.634H19.9431C19.3079 35.9248 17.958 33.4354 16.0341 31.425C14.881 30.2482 13.9744 28.8531 13.3675 27.3214C12.7607 25.7896 12.4658 24.1522 12.5001 22.505C12.5882 19.3276 13.8694 16.2998 16.0888 14.0243C18.3081 11.7488 21.3029 10.3924 24.4771 10.225Z" fill="white"/>
<path d="M26.1363 5.6825V1.1365C26.1363 0.835081 26.0165 0.546008 25.8034 0.332873C25.5903 0.119738 25.3012 0 24.9998 0C24.6984 0 24.4093 0.119738 24.1962 0.332873C23.983 0.546008 23.8633 0.835081 23.8633 1.1365V5.6825C23.8633 5.98392 23.983 6.27299 24.1962 6.48613C24.4093 6.69926 24.6984 6.819 24.9998 6.819C25.3012 6.819 25.5903 6.69926 25.8034 6.48613C26.0165 6.27299 26.1363 5.98392 26.1363 5.6825Z" fill="white"/>
<path d="M42.3737 6.01203L37.8287 10.557C37.7226 10.6621 37.6384 10.787 37.5806 10.9246C37.5229 11.0622 37.4928 11.2098 37.4922 11.3591C37.4915 11.5083 37.5203 11.6562 37.5768 11.7943C37.6334 11.9324 37.7166 12.0581 37.8217 12.164L37.8287 12.171C37.9337 12.277 38.0586 12.3613 38.1962 12.4191C38.3338 12.4768 38.4815 12.5068 38.6307 12.5075C38.7799 12.5081 38.9278 12.4794 39.066 12.4228C39.2041 12.3663 39.3297 12.2831 39.4357 12.178L39.4427 12.171L43.9877 7.62503C44.0936 7.51905 44.1777 7.39324 44.2351 7.25477C44.2924 7.11631 44.3219 6.9679 44.3219 6.81803C44.3219 6.66815 44.2924 6.51975 44.2351 6.38128C44.1777 6.24282 44.0936 6.11701 43.9877 6.01103C43.8817 5.90505 43.7559 5.82099 43.6174 5.76363C43.4789 5.70628 43.3305 5.67676 43.1807 5.67676C43.0308 5.67676 42.8824 5.70628 42.7439 5.76363C42.6054 5.82099 42.4796 5.90505 42.3737 6.01103V6.01203Z" fill="white"/>
<path d="M7.62635 6.01237C7.4105 5.80815 7.1235 5.69619 6.82639 5.7003C6.52927 5.70442 6.24548 5.82427 6.03536 6.03439C5.82525 6.2445 5.70539 6.52829 5.70128 6.82541C5.69717 7.12253 5.80913 7.40953 6.01335 7.62537L10.5594 12.1714C10.6644 12.2774 10.7893 12.3617 10.9269 12.4194C11.0645 12.4771 11.2122 12.5072 11.3614 12.5078C11.5106 12.5085 11.6585 12.4797 11.7967 12.4232C11.9348 12.3667 12.0604 12.2835 12.1664 12.1784L12.1734 12.1714C12.2794 12.0663 12.3636 11.9414 12.4214 11.8038C12.4791 11.6662 12.5092 11.5186 12.5098 11.3693C12.5105 11.2201 12.4817 11.0722 12.4252 10.9341C12.3686 10.796 12.2854 10.6703 12.1804 10.5644L12.1734 10.5574L7.62635 6.01237Z" fill="white"/>
<path d="M40.9102 25.0003C40.9102 25.3016 41.0298 25.5905 41.2429 25.8036C41.4559 26.0166 41.7449 26.1363 42.0462 26.1363H46.5922C46.8936 26.1363 47.1826 26.0165 47.3958 25.8034C47.6089 25.5903 47.7287 25.3012 47.7287 24.9998C47.7287 24.6984 47.6089 24.4093 47.3958 24.1962C47.1826 23.983 46.8936 23.8633 46.5922 23.8633H42.0472C41.7459 23.8633 41.4569 23.983 41.2439 24.196C41.0308 24.409 40.9112 24.698 40.9112 24.9993L40.9102 25.0003Z" fill="white"/>
<path d="M2.27344 25.0003C2.27344 25.3016 2.39312 25.5905 2.60616 25.8036C2.81921 26.0166 3.10815 26.1363 3.40944 26.1363H7.95544C8.25686 26.1363 8.54593 26.0165 8.75906 25.8034C8.9722 25.5903 9.09194 25.3012 9.09194 24.9998C9.09194 24.6984 8.9722 24.4093 8.75906 24.1962C8.54593 23.983 8.25686 23.8633 7.95544 23.8633H3.41044C3.10915 23.8633 2.82021 23.983 2.60716 24.196C2.39412 24.409 2.27444 24.698 2.27444 24.9993L2.27344 25.0003Z" fill="white"/>
</g>
<defs>
<clipPath id="clip0_159:3492">
<rect width="50" height="50" fill="white"/>
</clipPath>
</defs>
</svg>
