<svg width="50" height="50" viewBox="0 0 50 50" fill="none" xmlns="http://www.w3.org/2000/svg">
<g clip-path="url(#clip0_159:3489)">
<path d="M49.026 15.296C49.3115 15.1949 49.5586 15.0079 49.7334 14.7606C49.9082 14.5133 50.0021 14.2179 50.0021 13.915C50.0021 13.6122 49.9082 13.3168 49.7334 13.0695C49.5586 12.8221 49.3115 12.6351 49.026 12.534L25.487 4.23101C25.1716 4.11961 24.8275 4.11961 24.512 4.23101L0.978011 12.534C0.692532 12.6351 0.445392 12.8221 0.270599 13.0695C0.0958069 13.3168 0.00195313 13.6122 0.00195312 13.915C0.00195312 14.2179 0.0958069 14.5133 0.270599 14.7606C0.445392 15.0079 0.692532 15.1949 0.978011 15.296L10.3 18.61V28.161C10.3 29.738 11.945 31.072 15.19 32.125C18.3686 33.096 21.6765 33.5775 25 33.553C28.3243 33.5791 31.6332 33.099 34.813 32.129C38.058 31.076 39.7 29.743 39.7 28.161V18.61L43.549 17.242V30.483C42.689 30.7861 41.9441 31.3486 41.4173 32.0929C40.8904 32.8372 40.6075 33.7266 40.6075 34.6385C40.6075 35.5504 40.8904 36.4398 41.4173 37.1841C41.9441 37.9284 42.689 38.4909 43.549 38.794V44.388C43.549 44.7766 43.7034 45.1492 43.9781 45.4239C44.2528 45.6987 44.6255 45.853 45.014 45.853C45.4026 45.853 45.7752 45.6987 46.0499 45.4239C46.3247 45.1492 46.479 44.7766 46.479 44.388V38.793C47.3391 38.4899 48.0839 37.9274 48.6107 37.1831C49.1376 36.4388 49.4205 35.5494 49.4205 34.6375C49.4205 33.7256 49.1376 32.8362 48.6107 32.0919C48.0839 31.3476 47.3391 30.7851 46.479 30.482V16.2L49.026 15.296ZM45.017 36.115C44.7249 36.115 44.4393 36.0284 44.1964 35.8661C43.9535 35.7038 43.7642 35.4731 43.6524 35.2032C43.5407 34.9334 43.5114 34.6364 43.5684 34.3499C43.6254 34.0634 43.7661 33.8002 43.9726 33.5936C44.1792 33.3871 44.4424 33.2464 44.7289 33.1894C45.0154 33.1324 45.3123 33.1617 45.5822 33.2734C45.8521 33.3852 46.0828 33.5745 46.2451 33.8174C46.4074 34.0603 46.494 34.3459 46.494 34.638C46.4935 35.0296 46.3377 35.4049 46.0608 35.6818C45.7839 35.9587 45.4086 36.1145 45.017 36.115ZM25 7.16101L44.147 13.921L25 20.728L5.85301 13.921L25 7.16101ZM36.773 27.941C35.7194 28.729 34.5065 29.2778 33.219 29.549C30.5401 30.2747 27.7755 30.6359 25 30.623C22.2247 30.6369 19.4601 30.2767 16.781 29.552C15.4935 29.2809 14.2806 28.7321 13.227 27.944V19.652L24.509 23.661C24.8263 23.7738 25.1727 23.7738 25.49 23.661L36.772 19.65V27.943L36.773 27.941Z" fill="white"/>
</g>
<defs>
<clipPath id="clip0_159:3489">
<rect width="50" height="50" fill="white"/>
</clipPath>
</defs>
</svg>
