<svg width="40" height="40" viewBox="0 0 40 40" fill="none" xmlns="http://www.w3.org/2000/svg">
<path d="M9.66664 10.1664C8.33328 8.83301 2.66664 8.49973 0.833281 8.33301C0.666641 8.33301 0.499922 8.33301 0.333281 8.49965C0.166641 8.66637 0 8.99973 0 9.16637V24.1664C0 24.6664 0.333359 24.9997 0.833359 24.9997H5.83336C6.16672 24.9997 6.5 24.8331 6.66672 24.4997C6.66672 23.9997 9.66672 15.1664 10.0001 10.8331C10 10.6664 10 10.3331 9.66664 10.1664Z" fill="#48C2E3"/>
<path d="M27.4991 14.1663C25.8325 13.6663 24.3325 12.9997 22.9991 12.4997C19.9991 11.1663 18.6658 11.833 15.9991 14.4997C14.8325 15.6663 13.9991 17.333 14.1658 17.9997C14.1658 18.1663 14.1658 18.1663 14.4991 18.333C15.3325 18.6664 16.4991 18.833 17.6658 16.9997C17.8324 16.833 17.9991 16.6663 18.3324 16.6663C18.8324 16.6663 18.999 16.4997 19.499 16.333C19.8324 16.1663 20.1657 15.9996 20.6657 15.833C20.8323 15.833 20.8323 15.833 20.999 15.833C21.1657 15.833 21.499 15.9996 21.6657 15.9996C22.4991 16.833 23.9991 17.9997 25.4991 19.333C27.8325 21.1664 30.1658 23.1664 31.3325 24.6664H31.4991C30.3325 21.333 28.3325 15.6663 27.4991 14.1663Z" fill="#48C2E3"/>
<path d="M39.1674 10C32.6674 10 29.0007 11.6666 28.834 11.6666C28.6673 11.8333 28.5006 12 28.334 12.1666C28.334 12.3333 28.334 12.6666 28.5006 12.8333C29.5006 14.4999 32.834 23.6666 33.334 25.9999C33.5006 26.3333 33.834 26.6666 34.1674 26.6666H39.1674C39.6674 26.6666 40.0007 26.3332 40.0007 25.8332V10.8332C40.0007 10.3334 39.6674 10 39.1674 10Z" fill="#48C2E3"/>
<path d="M30.1679 26.333C29.5013 24.833 26.6679 22.6664 24.1679 20.6664C22.8346 19.4997 21.5013 18.4997 20.5013 17.6663C20.3346 17.8329 20.0013 17.8329 20.0013 17.9997C19.5013 18.1663 19.3346 18.333 18.6679 18.333C17.3346 19.9997 15.6679 20.6663 13.8346 19.9997C13.0013 19.833 12.5013 19.1663 12.3346 18.4997C12.0013 16.833 13.5012 14.4996 14.668 13.333H11.3346C10.668 16.6664 9.50125 20.9997 8.66797 23.333C9.33461 23.9997 10.0013 24.833 10.5013 25.1664C13.668 27.833 17.3347 30.4997 18.0013 30.9997C18.5013 31.3331 19.5013 31.6664 20.0013 31.6664C20.168 31.6664 20.3347 31.6664 20.5013 31.6664L17.8346 28.9997C17.5013 28.6663 17.5013 28.1663 17.8346 27.833C18.168 27.4997 18.668 27.4997 19.0012 27.833L22.3346 31.1664C22.668 31.4997 23.0013 31.333 23.3346 31.333C23.8346 31.1664 24.0013 30.833 24.168 30.333L20.3346 26.4997C20.0013 26.1663 20.0013 25.6663 20.3346 25.333C20.668 24.9997 21.168 24.9997 21.5013 25.333L25.6679 29.4997C25.8345 29.6663 26.5013 29.6663 27.0013 29.4997C27.1679 29.333 27.5013 29.1663 27.6679 28.833L23.0013 24.1663C22.6679 23.8329 22.6679 23.3329 23.0013 22.9997C23.3346 22.6664 23.8346 22.6663 24.1679 22.9997L29.0013 27.833C29.3346 27.9997 29.6679 27.833 30.0013 27.6664C30.1679 27.4997 30.5013 26.9997 30.1679 26.333Z" fill="#48C2E3"/>
</svg>
