<svg width="51" height="20" viewBox="0 0 51 20" fill="none" xmlns="http://www.w3.org/2000/svg">
<g clip-path="url(#clip0_69:459)">
<path d="M5.60048 15.6956C8.08645 15.6956 10.4242 15.6792 12.7455 15.6956C14.0461 15.7121 14.7541 16.2554 14.8858 17.2926C15.034 18.5932 14.2766 19.4657 12.8608 19.4822C10.1937 19.5151 7.54314 19.4987 4.87608 19.4987C4.10233 19.4987 3.34499 19.5316 2.57123 19.4822C1.61635 19.4328 0.677947 19.2352 0.216973 18.2474C-0.244 17.2596 0.0852665 16.3706 0.710871 15.5639C3.24623 12.3371 5.79802 9.09384 8.34984 5.86702C8.49802 5.66948 8.64617 5.4719 8.79436 5.29081C8.62972 5.01093 8.39923 5.14266 8.20166 5.12617C6.42363 5.10972 4.62914 5.12617 2.8511 5.10972C2.43952 5.10972 2.02793 5.06032 1.63282 4.97802C0.694407 4.76399 0.118193 3.8256 0.332216 2.90364C0.480386 2.27803 0.974286 1.76767 1.59989 1.6195C1.99501 1.52072 2.40659 1.47133 2.81817 1.47133C5.74863 1.45487 8.69557 1.45487 11.6261 1.47133C12.1529 1.45487 12.6632 1.52072 13.1736 1.65243C14.2931 2.03108 14.7705 3.06826 14.326 4.15484C13.9309 5.09326 13.3053 5.89996 12.6797 6.70666C10.523 9.45602 8.3663 12.1889 6.20963 14.9054C6.02851 15.1194 5.8639 15.3334 5.60048 15.6956Z" fill="white"/>
<path d="M24.6972 7.0351C25.0923 6.52473 25.5039 6.04731 26.1789 5.91558C27.4795 5.65219 28.6978 6.49179 28.7142 7.80888C28.7636 11.1015 28.7471 14.3942 28.7142 17.6869C28.7142 18.5429 28.1545 19.3002 27.3478 19.5472C26.5246 19.86 25.5862 19.6131 25.0429 18.9051C24.763 18.5594 24.6478 18.4935 24.2526 18.8064C22.7545 20.0246 21.0588 20.2387 19.2313 19.646C16.3009 18.6911 15.0991 16.4027 14.7698 13.6204C14.4241 10.6076 15.4283 8.03937 18.1283 6.45888C20.3673 5.12534 22.6393 5.24058 24.6972 7.0351ZM18.8692 13.0442C18.9021 13.7686 19.1326 14.46 19.5606 15.0362C20.4496 16.2216 22.1453 16.4686 23.3472 15.5796C23.5447 15.4314 23.7258 15.2503 23.8905 15.0362C24.8124 13.785 24.8124 11.7271 23.8905 10.4759C23.4295 9.83385 22.7051 9.45519 21.9313 9.43873C20.1204 9.32349 18.8527 10.7229 18.8692 13.0442ZM36.1063 13.143C35.9744 8.91191 38.7569 5.75094 42.7081 5.6357C46.9062 5.50401 49.9684 8.31925 50.1002 12.4351C50.2317 16.6003 47.6799 19.5472 43.7453 19.9423C39.4484 20.3704 36.0405 17.2588 36.1063 13.143ZM40.2387 12.7479C40.2056 13.571 40.4526 14.3777 40.9466 15.0527C41.852 16.2381 43.5478 16.4686 44.7329 15.5466C44.9141 15.4149 45.0623 15.2503 45.2105 15.0856C46.1653 13.8344 46.1653 11.7271 45.2269 10.4759C44.7659 9.85031 44.0414 9.45519 43.2678 9.43873C41.4899 9.33994 40.2387 10.6899 40.2387 12.7479ZM34.6575 9.86679C34.6575 12.4186 34.6738 14.9704 34.6575 17.5222C34.6738 18.6911 33.752 19.6625 32.5832 19.6954C32.3856 19.6954 32.1714 19.6789 31.9738 19.6295C31.1508 19.4155 30.525 18.5429 30.525 17.5058V4.41743C30.525 3.64364 30.5087 2.88634 30.525 2.11257C30.5417 0.84489 31.3484 0.0217268 32.5666 0.0217268C33.8178 0.00526351 34.6575 0.82843 34.6575 2.14549C34.6738 4.71376 34.6575 7.29852 34.6575 9.86679Z" fill="white"/>
</g>
<defs>
<clipPath id="clip0_69:459">
<rect width="50.1212" height="20" fill="white"/>
</clipPath>
</defs>
</svg>
