<svg width="20" height="20" viewBox="0 0 20 20" fill="none" xmlns="http://www.w3.org/2000/svg">
<g clip-path="url(#clip0_95:6484)">
<path d="M16.9761 12.0457C16.7232 10.5871 16.0245 9.24282 14.9761 8.19766L12.7481 5.95166H6.92814L4.70813 8.19766C3.65982 9.24282 2.96111 10.5871 2.70813 12.0457C2.48814 13.4017 2.65261 14.7923 3.18287 16.0596C3.71314 17.327 4.58798 18.4203 5.70813 19.2157C6.92839 20.0517 8.37297 20.4991 9.85214 20.4991C11.3313 20.4991 12.7759 20.0517 13.9961 19.2157C15.1163 18.4203 15.9911 17.327 16.5214 16.0596C17.0517 14.7923 17.2161 13.4017 16.9961 12.0457H16.9761ZM10.4081 8.04566V9.20366C10.9038 9.28598 11.3542 9.54133 11.6793 9.92434C12.0045 10.3074 12.1834 10.7932 12.1841 11.2957H11.0481C11.0476 11.0348 10.9438 10.7849 10.7593 10.6005C10.5749 10.416 10.3249 10.3122 10.0641 10.3117H9.61614C9.35516 10.3117 9.10488 10.4153 8.92034 10.5999C8.73581 10.7844 8.63214 11.0347 8.63214 11.2957C8.63214 11.5566 8.73581 11.8069 8.92034 11.9915C9.10488 12.176 9.35516 12.2797 9.61614 12.2797H10.0641C10.5966 12.2795 11.1097 12.4798 11.5013 12.8406C11.8929 13.2014 12.1343 13.6964 12.1777 14.2271C12.221 14.7578 12.0631 15.2854 11.7352 15.705C11.4073 16.1246 10.9336 16.4054 10.4081 16.4917V17.6577H9.27214V16.4917C8.7765 16.4093 8.32609 16.154 8.00093 15.771C7.67577 15.388 7.49692 14.9021 7.49614 14.3997H8.63214C8.63266 14.6605 8.7365 14.9104 8.92093 15.0949C9.10535 15.2793 9.35532 15.3831 9.61614 15.3837H10.0641C10.3251 15.3837 10.5754 15.28 10.7599 15.0955C10.9445 14.9109 11.0481 14.6606 11.0481 14.3997C11.0481 14.1387 10.9445 13.8884 10.7599 13.7039C10.5754 13.5193 10.3251 13.4157 10.0641 13.4157H9.61614C9.08365 13.4158 8.57061 13.2156 8.17901 12.8547C7.78741 12.4939 7.54593 11.9989 7.50259 11.4682C7.45924 10.9375 7.61721 10.4099 7.94507 9.99033C8.27293 9.57075 8.74668 9.28992 9.27214 9.20366V8.03766L10.4081 8.04566Z" fill="white"/>
<path d="M12.722 4.81777L14.098 1.11377H5.58203L6.95803 4.81777H12.722Z" fill="white"/>
</g>
<defs>
<clipPath id="clip0_95:6484">
<rect width="20" height="20" fill="white"/>
</clipPath>
</defs>
</svg>
