<svg width="40" height="40" viewBox="0 0 40 40" fill="none" xmlns="http://www.w3.org/2000/svg">
<path d="M11.7968 14.1406C9.21164 14.1406 7.03125 16.2428 7.03125 18.828H16.5623C16.5623 16.2429 14.382 14.1406 11.7968 14.1406Z" fill="white"/>
<path d="M25.9375 0.78125V7.1093H32.2655L25.9375 0.78125Z" fill="white"/>
<path d="M11.7968 7.10938C10.5048 7.10938 9.375 8.16109 9.375 9.45305C9.375 10.745 10.5048 11.7967 11.7968 11.7967C13.0888 11.7967 14.2186 10.745 14.2186 9.45305C14.2186 8.16109 13.0888 7.10938 11.7968 7.10938Z" fill="white"/>
<path d="M22.4214 16.4848H29.2073C30.3319 15.3583 31.5619 14.1271 32.968 12.7203V9.45383H24.7652C24.118 9.45383 23.5933 8.92915 23.5933 8.28197V0.000976562H3.51555C1.57023 0.000976562 0 1.64924 0 3.5946V36.4061C0 38.3512 1.57023 39.9997 3.51555 39.9997H29.4525C31.3979 39.9997 32.968 38.3512 32.968 36.4061V25.976L26.3981 32.5449L20.2139 36.9496C18.819 37.9407 16.8984 37.798 15.6707 36.5537C15.2922 36.1703 15.0562 35.7127 14.8885 35.2341H12.9684C12.3207 35.2341 11.7966 34.71 11.7966 34.0623C11.7966 33.4146 12.3207 32.8904 12.9684 32.8904H14.9061C15.0183 32.5859 15.138 32.2812 15.3388 32.0069L19.6028 26.1981C19.662 26.111 19.8095 25.9097 26.8691 18.8283H22.4214C21.7737 18.8283 21.2495 18.3042 21.2495 17.6565C21.2495 17.0087 21.7737 16.4848 22.4214 16.4848ZM15.3903 30.5469H5.8593C5.21156 30.5469 4.68742 30.0227 4.68742 29.375C4.68742 28.7273 5.21156 28.2031 5.8593 28.2031H15.3904C16.0381 28.2031 16.5623 28.7273 16.5623 29.375C16.5622 30.0227 16.038 30.5469 15.3903 30.5469ZM15.3903 25.8595H5.8593C5.21156 25.8595 4.68742 25.3354 4.68742 24.6876C4.68742 24.0399 5.21156 23.5158 5.8593 23.5158H15.3904C16.0381 23.5158 16.5623 24.0399 16.5623 24.6876C16.5623 25.3354 16.038 25.8595 15.3903 25.8595ZM18.9059 20.0003C18.9059 20.6481 18.3817 21.1722 17.734 21.1722H5.8593C5.21156 21.1722 4.68742 20.6481 4.68742 20.0003V18.8285C4.68742 16.179 6.17758 13.8951 8.34758 12.6968C7.53633 11.8537 7.03109 10.7137 7.03109 9.45375C7.03109 6.86863 9.21141 4.76639 11.7966 4.76639C14.3818 4.76639 16.5622 6.86863 16.5622 9.45375C16.5622 10.7137 16.0571 11.8537 15.2459 12.6968C17.4159 13.895 18.9059 16.1789 18.9059 18.8285V20.0003ZM22.4214 11.7975H27.1088C27.7566 11.7975 28.2807 12.3216 28.2807 12.9693C28.2807 13.6171 27.7566 14.1412 27.1088 14.1412H22.4214C21.7737 14.1412 21.2495 13.6171 21.2495 12.9693C21.2495 12.3216 21.7737 11.7975 22.4214 11.7975Z" fill="white"/>
<path d="M39.3129 13.0029C38.3987 12.0889 36.9129 12.0889 35.9987 13.0029C35.9442 13.0575 34.3986 14.605 32.3438 16.664L35.6552 19.9754L39.3129 16.3182C40.2276 15.4035 40.2312 13.9212 39.3129 13.0029Z" fill="white"/>
<path d="M30.6881 18.3232C27.7451 21.2735 24.3712 24.6596 22.6445 26.4059C24.2635 26.8082 25.5322 28.0838 25.9209 29.708L33.9975 21.6326L30.6881 18.3232Z" fill="white"/>
<path d="M21.5685 28.6045H20.7434L17.2291 33.3921C16.8887 33.856 16.9353 34.4984 17.3393 34.9082C17.7433 35.318 18.385 35.3739 18.8537 35.04L23.7109 31.5811V30.748C23.7108 29.5657 22.7494 28.6045 21.5685 28.6045Z" fill="white"/>
</svg>
