<svg width="40" height="40" viewBox="0 0 40 40" fill="none" xmlns="http://www.w3.org/2000/svg">
<path d="M19.9351 14.8999C18.8751 14.9007 17.8391 15.2157 16.9581 15.8051C16.0771 16.3946 15.3906 17.2319 14.9853 18.2114C14.5801 19.1909 14.4743 20.2685 14.6814 21.3081C14.8885 22.3477 15.3991 23.3026 16.1487 24.0521C16.8983 24.8015 17.8533 25.3119 18.8929 25.5188C19.9325 25.7257 21.0101 25.6197 21.9895 25.2143C22.969 24.8089 23.8062 24.1222 24.3955 23.2411C24.9847 22.36 25.2995 21.3239 25.3001 20.2639C25.2991 18.8414 24.7335 17.4775 23.7275 16.4718C22.7216 15.4661 21.3576 14.9007 19.9351 14.8999V14.8999ZM19.9351 23.2389C19.3461 23.2389 18.7704 23.0642 18.2806 22.737C17.7909 22.4098 17.4092 21.9447 17.1838 21.4005C16.9584 20.8564 16.8994 20.2576 17.0143 19.6799C17.1293 19.1022 17.4129 18.5716 17.8294 18.1551C18.2458 17.7387 18.7765 17.455 19.3541 17.3401C19.9318 17.2252 20.5306 17.2842 21.0748 17.5096C21.6189 17.735 22.084 18.1167 22.4112 18.6064C22.7385 19.0961 22.9131 19.6719 22.9131 20.2609C22.9131 21.0511 22.5995 21.809 22.0411 22.3681C21.4828 22.9272 20.7253 23.2418 19.9351 23.2429V23.2389Z" fill="white"/>
<path d="M31.0063 14.1196C30.0428 14.121 29.1191 14.5044 28.4378 15.1858C27.7566 15.8673 27.3734 16.7911 27.3723 17.7546V20.1546C27.3723 22.1095 26.5957 23.9844 25.2134 25.3667C23.8311 26.749 21.9562 27.5256 20.0013 27.5256C18.0464 27.5256 16.1716 26.749 14.7892 25.3667C13.4069 23.9844 12.6303 22.1095 12.6303 20.1546V17.7546C12.6303 17.2773 12.5363 16.8047 12.3537 16.3638C12.171 15.9228 11.9033 15.5221 11.5658 15.1846C11.2283 14.8472 10.8276 14.5794 10.3867 14.3968C9.94573 14.2141 9.47312 14.1201 8.99583 14.1201C8.51854 14.1201 8.04592 14.2141 7.60497 14.3968C7.16401 14.5794 6.76334 14.8472 6.42585 15.1846C6.08835 15.5221 5.82064 15.9228 5.63799 16.3638C5.45534 16.8047 5.36133 17.2773 5.36133 17.7546V20.1086C5.36332 22.3358 5.87206 24.5333 6.84905 26.5347C7.82603 28.5362 9.24562 30.289 11.0003 31.6606V38.8086C11.0003 38.9658 11.0314 39.1214 11.0918 39.2665C11.1523 39.4116 11.2408 39.5433 11.3523 39.654C11.4639 39.7647 11.5962 39.8522 11.7418 39.9116C11.8873 39.9709 12.0432 40.0008 12.2003 39.9996H27.6673C27.9831 39.9994 28.2859 39.8738 28.5092 39.6505C28.7325 39.4272 28.8581 39.1244 28.8583 38.8086V31.7296C30.6575 30.341 32.1142 28.5583 33.1166 26.5185C34.1189 24.4788 34.6402 22.2364 34.6403 19.9636V17.7546C34.6395 16.791 34.2564 15.867 33.5751 15.1855C32.8938 14.504 31.97 14.1207 31.0063 14.1196V14.1196ZM26.4763 31.1276V37.6176H13.3873V31.0626C13.3871 30.8728 13.3416 30.6859 13.2546 30.5172C13.1677 30.3485 13.0418 30.2029 12.8873 30.0926C11.2981 28.9571 10.0023 27.459 9.10759 25.7227C8.21284 23.9865 7.74482 22.0619 7.74233 20.1086V17.7546C7.7327 17.5845 7.75789 17.4143 7.81636 17.2542C7.87483 17.0942 7.96535 16.9478 8.08236 16.824C8.19938 16.7001 8.34044 16.6015 8.49691 16.5341C8.65338 16.4667 8.82196 16.4319 8.99233 16.4319C9.1627 16.4319 9.33128 16.4667 9.48775 16.5341C9.64421 16.6015 9.78527 16.7001 9.90229 16.824C10.0193 16.9478 10.1098 17.0942 10.1683 17.2542C10.2268 17.4143 10.252 17.5845 10.2423 17.7546V20.1546C10.2423 22.7416 11.27 25.2225 13.0992 27.0517C14.9284 28.881 17.4094 29.9086 19.9963 29.9086C22.5833 29.9086 25.0642 28.881 26.8934 27.0517C28.7227 25.2225 29.7503 22.7416 29.7503 20.1546V17.7546C29.7407 17.5845 29.7659 17.4143 29.8244 17.2542C29.8828 17.0942 29.9733 16.9478 30.0904 16.824C30.2074 16.7001 30.3484 16.6015 30.5049 16.5341C30.6614 16.4667 30.83 16.4319 31.0003 16.4319C31.1707 16.4319 31.3393 16.4667 31.4957 16.5341C31.6522 16.6015 31.7933 16.7001 31.9103 16.824C32.0273 16.9478 32.1178 17.0942 32.1763 17.2542C32.2348 17.4143 32.26 17.5845 32.2503 17.7546V19.9636C32.2505 21.9605 31.7713 23.9282 30.853 25.7014C29.9348 27.4746 28.6043 29.0015 26.9733 30.1536C26.8185 30.2643 26.6924 30.4105 26.6058 30.58C26.5191 30.7495 26.4744 30.9373 26.4753 31.1276H26.4763Z" fill="white"/>
<path d="M15.3054 8.94586L15.1224 12.4789C15.1123 12.6782 15.1525 12.8769 15.2392 13.0566C15.3259 13.2364 15.4563 13.3915 15.6186 13.5078C15.7808 13.624 15.9696 13.6977 16.1677 13.722C16.3658 13.7463 16.5669 13.7204 16.7524 13.6469L19.9994 12.3559L23.2474 13.6469C23.4329 13.7204 23.6339 13.7463 23.832 13.722C24.0301 13.6977 24.2189 13.624 24.3812 13.5078C24.5434 13.3915 24.6739 13.2364 24.7606 13.0566C24.8472 12.8769 24.8874 12.6782 24.8774 12.4789L24.6944 8.94586L26.8864 6.28286C27.0114 6.12976 27.0964 5.94793 27.1337 5.75378C27.1709 5.55963 27.1592 5.35927 27.0997 5.17075C27.0402 4.98224 26.9347 4.81151 26.7927 4.67396C26.6507 4.53641 26.4767 4.43637 26.2864 4.38286L22.8994 3.42586L20.9934 0.534859C20.8847 0.370449 20.737 0.235536 20.5635 0.142196C20.3899 0.0488561 20.1959 0 19.9989 0C19.8018 0 19.6078 0.0488561 19.4343 0.142196C19.2607 0.235536 19.113 0.370449 19.0044 0.534859L17.0994 3.42586L13.7124 4.37786C13.5221 4.43137 13.3481 4.53141 13.2061 4.66896C13.0641 4.80651 12.9586 4.97724 12.899 5.16575C12.8395 5.35427 12.8278 5.55463 12.8651 5.74878C12.9023 5.94293 12.9873 6.12476 13.1124 6.27786L15.3054 8.94586ZM18.8434 5.10986L19.9994 3.35486L21.1554 5.10986C21.3132 5.34927 21.5522 5.52363 21.8284 5.60086L23.8854 6.17886L22.5594 7.78886C22.3703 8.0186 22.274 8.31073 22.2894 8.60786L22.4004 10.7479L20.4384 9.96786C20.1558 9.85562 19.841 9.85562 19.5584 9.96786L17.5964 10.7479L17.7074 8.60786C17.7227 8.31073 17.6264 8.0186 17.4374 7.78886L16.1114 6.17886L18.1704 5.59986C18.4464 5.52288 18.6854 5.34889 18.8434 5.10986V5.10986Z" fill="white"/>
<path d="M10.8415 11.5509C11.065 11.7744 11.368 11.8999 11.684 11.8999C12 11.8999 12.3031 11.7744 12.5265 11.5509C12.75 11.3275 12.8755 11.0244 12.8755 10.7084C12.8755 10.3925 12.75 10.0894 12.5265 9.86595L8.04655 5.38595C7.93591 5.27525 7.80455 5.18742 7.65997 5.12748C7.51539 5.06754 7.36041 5.03667 7.2039 5.03662C6.88781 5.03653 6.58462 5.162 6.36105 5.38545C6.13747 5.60889 6.01181 5.912 6.01172 6.2281C6.01163 6.54419 6.1371 6.84737 6.36055 7.07095L10.8415 11.5509Z" fill="white"/>
<path d="M29.4402 11.5511L33.9202 7.07108C34.1437 6.84764 34.2692 6.54458 34.2692 6.22858C34.2692 5.91259 34.1437 5.60953 33.9202 5.38608C33.6968 5.16264 33.3937 5.03711 33.0777 5.03711C32.7617 5.03711 32.4587 5.16264 32.2352 5.38608L27.7552 9.86608C27.6446 9.97672 27.5568 10.1081 27.4969 10.2526C27.4371 10.3972 27.4062 10.5521 27.4062 10.7086C27.4062 10.8651 27.4371 11.02 27.4969 11.1645C27.5568 11.3091 27.6446 11.4404 27.7552 11.5511C27.9787 11.7745 28.2817 11.9001 28.5977 11.9001C28.7542 11.9001 28.9091 11.8692 29.0537 11.8094C29.1982 11.7495 29.3296 11.6617 29.4402 11.5511V11.5511Z" fill="white"/>
</svg>
