<svg width="20" height="20" viewBox="0 0 20 20" fill="none" xmlns="http://www.w3.org/2000/svg">
<path d="M19.4141 2.34375H16.4251C16.1529 1.00816 14.9694 0 13.5547 0C12.14 0 10.9565 1.00816 10.6843 2.34375H0.585938C0.26207 2.34375 0 2.60582 0 2.92969C0 3.25355 0.26207 3.51562 0.585938 3.51562H10.6843C10.9565 4.85121 12.14 5.85938 13.5547 5.85938C14.9694 5.85938 16.1529 4.85121 16.4251 3.51562H19.4141C19.7379 3.51562 20 3.25355 20 2.92969C20 2.60582 19.7379 2.34375 19.4141 2.34375Z" fill="#145FAA"/>
<path d="M19.4141 9.41406H9.35476C9.08254 8.07848 7.89906 7.07031 6.48438 7.07031C5.06969 7.07031 3.88621 8.07848 3.61398 9.41406H0.585938C0.26207 9.41406 0 9.67613 0 10C0 10.3239 0.26207 10.5859 0.585938 10.5859H3.61398C3.88621 11.9215 5.06969 12.9297 6.48438 12.9297C7.89906 12.9297 9.08254 11.9215 9.35476 10.5859H19.4141C19.7379 10.5859 20 10.3239 20 10C20 9.67613 19.7379 9.41406 19.4141 9.41406Z" fill="#145FAA"/>
<path d="M19.4141 16.4844H16.4251C16.1529 15.1488 14.9694 14.1406 13.5547 14.1406C12.14 14.1406 10.9565 15.1488 10.6843 16.4844H0.585938C0.26207 16.4844 0 16.7464 0 17.0703C0 17.3942 0.26207 17.6562 0.585938 17.6562H10.6843C10.9565 18.9918 12.14 20 13.5547 20C14.9694 20 16.1529 18.9918 16.4251 17.6562H19.4141C19.7379 17.6562 20 17.3942 20 17.0703C20 16.7464 19.7379 16.4844 19.4141 16.4844Z" fill="#145FAA"/>
</svg>
