<svg width="40" height="40" viewBox="0 0 40 40" fill="none" xmlns="http://www.w3.org/2000/svg">
<path fill-rule="evenodd" clip-rule="evenodd" d="M20 38C23.5601 38 27.0402 36.9443 30.0003 34.9665C32.9604 32.9886 35.2675 30.1774 36.6298 26.8883C37.9922 23.5992 38.3487 19.98 37.6541 16.4884C36.9596 12.9967 35.2453 9.78943 32.7279 7.27209C30.2106 4.75474 27.0033 3.04041 23.5116 2.34587C20.02 1.65134 16.4008 2.0078 13.1117 3.37018C9.82263 4.73255 7.01141 7.03966 5.03355 9.99974C3.05568 12.9598 2 16.4399 2 20C2 24.7739 3.89642 29.3523 7.27208 32.7279C10.6477 36.1036 15.2261 38 20 38ZM20 40C23.9556 40 27.8224 38.827 31.1114 36.6294C34.4004 34.4318 36.9638 31.3082 38.4776 27.6537C39.9913 23.9992 40.3874 19.9778 39.6157 16.0982C38.844 12.2186 36.9392 8.65492 34.1421 5.85787C31.3451 3.06082 27.7814 1.15601 23.9018 0.384303C20.0222 -0.387401 16.0009 0.00866568 12.3463 1.52242C8.69181 3.03617 5.56824 5.59962 3.37061 8.8886C1.17298 12.1776 0 16.0444 0 20C0 25.3043 2.10714 30.3914 5.85786 34.1421C9.60859 37.8929 14.6957 40 20 40Z" fill="white"/>
<path fill-rule="evenodd" clip-rule="evenodd" d="M25.2 20.0001L16 13.8691V26.1321L25.2 20.0001ZM27.058 18.8351C27.2498 18.9629 27.4071 19.1361 27.5159 19.3394C27.6247 19.5426 27.6816 19.7695 27.6816 20.0001C27.6816 20.2306 27.6247 20.4575 27.5159 20.6608C27.4071 20.864 27.2498 21.0372 27.058 21.1651L16.176 28.4181C15.9652 28.5585 15.7202 28.6391 15.4671 28.6512C15.2141 28.6633 14.9625 28.6066 14.7392 28.4871C14.5159 28.3675 14.3292 28.1896 14.199 27.9723C14.0688 27.7549 14 27.5064 14 27.2531V12.7481C13.9999 12.4946 14.0687 12.2458 14.1989 12.0284C14.3291 11.8109 14.516 11.6329 14.7394 11.5133C14.9629 11.3937 15.2147 11.337 15.4679 11.3493C15.7211 11.3616 15.9661 11.4424 16.177 11.5831L27.058 18.8351Z" fill="white"/>
</svg>
