<svg width="8" height="8" viewBox="0 0 8 8" fill="none" xmlns="http://www.w3.org/2000/svg">
<g clip-path="url(#clip0_75:13662)">
<path d="M3.99979 6.1819C3.95198 6.18196 3.90463 6.17257 3.86047 6.15426C3.81631 6.13596 3.7762 6.1091 3.74245 6.07524L0.106453 2.43923C0.0727031 2.40549 0.0459314 2.36542 0.0276662 2.32132C0.00940095 2.27723 -7.20099e-08 2.22996 -6.36647e-08 2.18223C-4.68107e-08 2.08584 0.0382923 1.9934 0.106453 1.92523C0.174614 1.85707 0.267059 1.81878 0.363453 1.81878C0.459847 1.81878 0.552292 1.85707 0.620453 1.92523L3.99979 5.30457L7.38179 1.92457C7.44995 1.85641 7.54239 1.81812 7.63879 1.81812C7.73518 1.81812 7.82763 1.85641 7.89579 1.92457C7.96395 1.99273 8.00224 2.08518 8.00224 2.18157C8.00224 2.27796 7.96395 2.37041 7.89579 2.43857L4.25712 6.07524C4.22337 6.1091 4.18326 6.13596 4.1391 6.15426C4.09494 6.17257 4.04759 6.18196 3.99979 6.1819Z" fill="#145FAA"/>
</g>
<defs>
<clipPath id="clip0_75:13662">
<rect width="8" height="8" fill="white"/>
</clipPath>
</defs>
</svg>
