<svg width="16" height="16" viewBox="0 0 16 16" fill="none" xmlns="http://www.w3.org/2000/svg">
<path d="M2.44795 1.88843C2.44751 1.88843 2.44703 1.88843 2.4466 1.88843C2.29527 1.88843 2.15294 1.94742 2.04547 2.05462C1.93681 2.16301 1.87695 2.30734 1.87695 2.46098V11.0463C1.87695 11.3611 2.13409 11.6179 2.45021 11.6187C3.7829 11.6219 6.01569 11.8997 7.55601 13.5116V4.52676C7.55601 4.42004 7.52875 4.31979 7.4773 4.23682C6.21308 2.20089 3.78366 1.89155 2.44795 1.88843Z" fill="white"/>
<path d="M14.1243 11.0463V2.46086C14.1243 2.30722 14.0645 2.16289 13.9558 2.0545C13.8483 1.9473 13.7059 1.88831 13.5547 1.88831C13.5542 1.88831 13.5537 1.88831 13.5533 1.88831C12.2177 1.89148 9.78824 2.20082 8.52397 4.23676C8.47252 4.31972 8.44531 4.41998 8.44531 4.5267V13.5115C9.98563 11.8995 12.2184 11.6218 13.5511 11.6186C13.8672 11.6178 14.1243 11.361 14.1243 11.0463Z" fill="white"/>
<path d="M15.4277 3.86829H15.0126V11.0463C15.0126 11.8501 14.3577 12.5056 13.5526 12.5076C12.4222 12.5103 10.5583 12.7313 9.23828 13.9806C11.5213 13.4217 13.928 13.785 15.2996 14.0976C15.4708 14.1366 15.6478 14.0963 15.785 13.9869C15.9217 13.8779 16.0002 13.7148 16.0002 13.5398V4.44073C16.0002 4.1251 15.7434 3.86829 15.4277 3.86829Z" fill="white"/>
<path d="M0.987586 11.0463V3.86829H0.572446C0.256863 3.86829 0 4.1251 0 4.44073V13.5396C0 13.7147 0.078438 13.8777 0.215166 13.9868C0.352271 14.0961 0.529079 14.1365 0.700608 14.0974C2.0722 13.7848 4.47894 13.4215 6.76183 13.9805C5.44185 12.7312 3.57798 12.5102 2.44758 12.5075C1.64256 12.5056 0.987586 11.8501 0.987586 11.0463Z" fill="white"/>
</svg>
