<svg width="35" height="32" viewBox="0 0 35 32" fill="none" xmlns="http://www.w3.org/2000/svg">
<path opacity="0.3" d="M23.3623 21.1695C26.6688 20.9333 33.7281 18.9008 35 17.765C34.6927 17.3955 34.44 16.9334 34.0534 16.6565C33.0328 15.9257 31.9462 15.2852 30.9002 14.5877C29.8092 13.8606 28.7729 13.0453 27.6438 12.3849C26.3181 11.6089 25.9285 10.4442 26.0646 9.06472C26.1924 7.77412 26.4662 6.49833 26.6606 5.21439C26.8243 4.13334 27.0277 3.05303 27.0965 1.96532C27.1376 1.31743 27.1638 0.541433 26.44 0.166767C25.7618 -0.183464 25.0956 0.06532 24.5138 0.475528C22.6303 1.80167 20.7631 3.14927 18.8803 4.47615C17.5479 5.41504 16.1833 5.50316 14.7484 4.65164C13.8032 4.09038 12.796 3.63204 11.8359 3.09374C10.7368 2.47695 9.66453 1.81501 8.57059 1.18933C8.16233 0.955348 7.74511 0.708756 7.29872 0.573254C6.6923 0.388882 6.18684 0.616963 6.22049 1.3004C6.27059 2.33036 6.33489 3.38105 6.58837 4.37473C6.99887 5.98743 7.52677 7.57418 8.08084 9.14541C8.6566 10.7796 8.2633 12.0813 6.95552 13.1912C4.95907 14.8854 3.00745 16.6321 0.999784 18.3137C-0.47774 19.5509 -0.330378 20.7482 1.52699 21.3946C3.31034 22.0159 5.16619 21.7678 6.9959 21.5627C8.14068 21.4339 9.28244 21.2687 10.4212 21.0933C11.6513 20.9037 12.3736 21.4709 12.9194 22.5149C14.2474 25.0591 15.6263 27.5774 17.0088 30.0934C17.3072 30.6369 17.6578 31.1708 18.0781 31.6247C18.5903 32.1785 19.0972 32.1171 19.4718 31.4558C19.8031 30.8709 20.0364 30.2252 20.2615 29.5884C21.0249 27.4256 21.7532 25.2516 22.5218 23.091C22.7469 22.4535 23.0617 21.8485 23.3623 21.1695ZM0.782987 19.7308C1.23163 19.3014 1.65634 18.8608 2.1162 18.461C3.8973 16.9135 5.67766 15.3644 7.48119 13.8436C9.06639 12.5071 9.52545 10.9136 8.85099 8.94551C8.24383 7.17436 7.707 5.37804 7.19181 3.57727C7.00114 2.91087 6.96221 2.20223 6.80444 1.19522C7.66433 1.65948 8.21092 1.94533 8.74854 2.24595C10.4429 3.19224 12.1523 4.1126 13.8212 5.10036C16.1048 6.45167 18.1955 6.18142 20.2338 4.57095C21.5483 3.5321 22.9249 2.56803 24.2992 1.60767C24.8271 1.23893 25.3243 0.702839 26.2971 0.913867C26.2104 1.96234 26.1648 2.99231 26.0317 4.01116C25.8156 5.6594 25.521 7.29726 25.296 8.94476C25.0447 10.784 25.7409 12.1953 27.3268 13.1949C28.924 14.2019 30.5092 15.2282 32.0906 16.2582C32.6791 16.641 33.2429 17.0608 34.0788 17.6458C33.2803 17.9308 32.8121 18.1359 32.3239 18.2663C29.6851 18.9697 27.0501 19.6894 24.3957 20.3314C23.1515 20.6327 22.3611 21.3806 21.8728 22.4705C21.4683 23.3731 21.152 24.3165 20.8274 25.2524C20.1679 27.1539 19.5287 29.0627 18.7974 31.2159C18.4056 30.7221 18.1491 30.477 17.9869 30.1808C16.7067 27.8477 15.4229 25.5167 14.1824 23.1628C12.6466 20.2469 12.4506 20.1581 9.13738 20.4713C7.04447 20.669 4.94112 20.7564 2.83999 20.8615C2.01822 20.9022 1.29369 20.6675 0.782987 19.7308Z" fill="#EA412C"/>
</svg>
