<svg width="18" height="18" viewBox="0 0 18 18" fill="none" xmlns="http://www.w3.org/2000/svg">
<g clip-path="url(#clip0_63:3711)">
<path d="M13.5 17H4.5C3.67333 17 3 16.3273 3 15.5V8.5C3 7.67267 3.67333 7 4.5 7H13.5C14.3267 7 15 7.67267 15 8.5V15.5C15 16.3273 14.3267 17 13.5 17ZM4.5 8C4.22467 8 4 8.224 4 8.5V15.5C4 15.776 4.22467 16 4.5 16H13.5C13.7753 16 14 15.776 14 15.5V8.5C14 8.224 13.7753 8 13.5 8H4.5Z" fill="#145FAA"/>
<path d="M12.5 8C12.224 8 12 7.776 12 7.5V5C12 3.346 10.654 2 9 2C7.346 2 6 3.346 6 5V7.5C6 7.776 5.776 8 5.5 8C5.224 8 5 7.776 5 7.5V5C5 2.794 6.794 1 9 1C11.206 1 13 2.794 13 5V7.5C13 7.776 12.776 8 12.5 8Z" fill="#145FAA"/>
<path d="M8.99935 12.3333C8.26401 12.3333 7.66602 11.7353 7.66602 11C7.66602 10.2646 8.26401 9.66663 8.99935 9.66663C9.73468 9.66663 10.3327 10.2646 10.3327 11C10.3327 11.7353 9.73468 12.3333 8.99935 12.3333ZM8.99935 10.6666C8.81601 10.6666 8.66601 10.816 8.66601 11C8.66601 11.184 8.81601 11.3333 8.99935 11.3333C9.18268 11.3333 9.33268 11.184 9.33268 11C9.33268 10.816 9.18268 10.6666 8.99935 10.6666Z" fill="#145FAA"/>
<path d="M9 14.3333C8.724 14.3333 8.5 14.1093 8.5 13.8333V12C8.5 11.724 8.724 11.5 9 11.5C9.276 11.5 9.5 11.724 9.5 12V13.8333C9.5 14.1093 9.276 14.3333 9 14.3333Z" fill="#145FAA"/>
</g>
<defs>
<clipPath id="clip0_63:3711">
<rect width="16" height="16" fill="white" transform="translate(1 1)"/>
</clipPath>
</defs>
</svg>
