<svg width="16" height="16" viewBox="0 0 16 16" fill="none" xmlns="http://www.w3.org/2000/svg">
<path d="M14.4932 1.88756C14.4267 1.60906 14.1207 1.41956 13.8432 1.51806C13.8432 1.51806 1.82271 5.76056 1.82071 5.76206C1.63621 5.83056 1.50071 6.00656 1.49071 6.20806C1.48171 6.40156 1.60121 6.60306 1.77771 6.68506L6.43371 8.85856C6.43371 8.85856 8.70221 6.59006 8.70621 6.58606C9.15621 6.13606 9.87471 6.83206 9.41321 7.29306L7.14071 9.56556C7.14071 9.56556 9.31121 14.2166 9.31521 14.2241C9.40371 14.3941 9.57671 14.5021 9.76671 14.5106C9.97321 14.5201 10.1642 14.3621 10.2382 14.1771C10.2382 14.1771 14.4782 2.16356 14.4807 2.15606C14.5122 2.06956 14.5142 1.97606 14.4932 1.88756V1.88756Z" fill="#145FAA"/>
</svg>
