<svg width="16" height="16" viewBox="0 0 16 16" fill="none" xmlns="http://www.w3.org/2000/svg">
<rect width="16" height="16" fill="white"/>
<path d="M15.5312 1.875H13.1401C12.9223 0.806531 11.9755 0 10.8438 0C9.712 0 8.76522 0.806531 8.54744 1.875H0.46875C0.209656 1.875 0 2.08466 0 2.34375C0 2.60284 0.209656 2.8125 0.46875 2.8125H8.54744C8.76522 3.88097 9.712 4.6875 10.8438 4.6875C11.9755 4.6875 12.9223 3.88097 13.1401 2.8125H15.5312C15.7903 2.8125 16 2.60284 16 2.34375C16 2.08466 15.7903 1.875 15.5312 1.875Z" fill="#145FAA"/>
<path d="M15.5312 7.53125H7.48381C7.26603 6.46278 6.31925 5.65625 5.1875 5.65625C4.05575 5.65625 3.10897 6.46278 2.89119 7.53125H0.46875C0.209656 7.53125 0 7.74091 0 8C0 8.25909 0.209656 8.46875 0.46875 8.46875H2.89119C3.10897 9.53722 4.05575 10.3438 5.1875 10.3438C6.31925 10.3438 7.26603 9.53722 7.48381 8.46875H15.5312C15.7903 8.46875 16 8.25909 16 8C16 7.74091 15.7903 7.53125 15.5312 7.53125Z" fill="#145FAA"/>
<path d="M15.5312 13.1875H13.1401C12.9223 12.119 11.9755 11.3125 10.8438 11.3125C9.712 11.3125 8.76522 12.119 8.54744 13.1875H0.46875C0.209656 13.1875 0 13.3972 0 13.6562C0 13.9153 0.209656 14.125 0.46875 14.125H8.54744C8.76522 15.1935 9.712 16 10.8438 16C11.9755 16 12.9223 15.1935 13.1401 14.125H15.5312C15.7903 14.125 16 13.9153 16 13.6562C16 13.3972 15.7903 13.1875 15.5312 13.1875Z" fill="#145FAA"/>
</svg>
