<svg width="50" height="49" viewBox="0 0 50 49" fill="none" xmlns="http://www.w3.org/2000/svg">
<path opacity="0.2" d="M24.971 0C24.971 6.35781 22.4456 12.4553 17.9503 16.9512C13.4549 21.4472 7.35781 23.9734 1 23.9743C7.3581 23.9743 13.4558 26.5 17.9518 30.9957C22.4478 35.4914 24.9739 41.5889 24.9743 47.947C24.9743 41.5891 27.5 35.4915 31.9958 30.9958C36.4915 26.5001 42.589 23.9743 48.947 23.9743C45.7985 23.9745 42.6808 23.3546 39.7719 22.1499C36.863 20.9452 34.2199 19.1793 31.9935 16.953C29.7671 14.7268 28.0011 12.0838 26.7961 9.17495C25.5912 6.26614 24.971 3.14849 24.971 0V0Z" stroke="#EA412C" stroke-width="2" stroke-linecap="round" stroke-linejoin="round"/>
</svg>
