<svg width="40" height="40" viewBox="0 0 40 40" fill="none" xmlns="http://www.w3.org/2000/svg">
<path d="M10.5474 0C9.2957 0.0165928 8.10114 0.526516 7.22331 1.41895C6.34548 2.31138 5.85534 3.5142 5.8594 4.766C5.87739 5.99734 6.37916 7.17217 7.25628 8.03657C8.1334 8.90097 9.31542 9.38553 10.5469 9.38553C11.7784 9.38553 12.9604 8.90097 13.8375 8.03657C14.7146 7.17217 15.2164 5.99734 15.2344 4.766C15.2385 3.51437 14.7485 2.3117 13.8708 1.4193C12.9932 0.526892 11.7989 0.016854 10.5474 0V0ZM10.5474 7.109C9.92555 7.10927 9.32903 6.86263 8.88894 6.42329C8.44885 5.98395 8.20119 5.38785 8.2004 4.766C8.19856 4.13648 8.4425 3.5311 8.88029 3.07874C9.31809 2.62638 9.91516 2.36276 10.5444 2.344C11.1736 2.36276 11.7707 2.62638 12.2085 3.07874C12.6463 3.5311 12.8902 4.13648 12.8884 4.766C12.8876 5.38681 12.6408 5.982 12.202 6.42117C11.7632 6.86034 11.1682 7.10768 10.5474 7.109Z" fill="white"/>
<path d="M36.484 0H19.922C18.9898 0.00105869 18.0961 0.371833 17.437 1.03098C16.7778 1.69013 16.4071 2.58382 16.406 3.516V11.516L15.376 10.486C15.0503 10.1584 14.6629 9.89872 14.2362 9.72192C13.8095 9.54512 13.3519 9.45473 12.89 9.456H5.859C4.30601 9.45785 2.81713 10.0755 1.71881 11.1734C0.620496 12.2713 0.0023816 13.76 9.89569e-10 15.313L9.8957e-10 22.344C-1.33432e-05 22.9065 0.134931 23.4608 0.393504 23.9603C0.652076 24.4599 1.02673 24.8901 1.486 25.2149C1.94528 25.5396 2.47577 25.7495 3.03293 25.8267C3.5901 25.904 4.15767 25.8465 4.688 25.659V36.484C4.68821 37.1625 4.88486 37.8265 5.2542 38.3957C5.62354 38.9649 6.14977 39.415 6.76934 39.6916C7.38892 39.9682 8.07533 40.0596 8.74568 39.9546C9.41604 39.8496 10.0417 39.5528 10.547 39.1C11.0525 39.5529 11.6783 39.8498 12.3488 39.9547C13.0193 40.0596 13.7059 39.9681 14.3256 39.6912C14.9452 39.4143 15.4714 38.9639 15.8406 38.3944C16.2098 37.8249 16.4062 37.1607 16.406 36.482V20.972C16.8516 21.1284 17.3241 21.1938 17.7954 21.1642C18.2668 21.1347 18.7274 21.0108 19.15 20.8L23.1 18.828H36.484C37.416 18.8269 38.3095 18.4563 38.9687 17.7974C39.6278 17.1384 39.9987 16.245 40 15.313V3.516C39.9989 2.58382 39.6282 1.69013 38.969 1.03098C38.3099 0.371833 37.4162 0.00105869 36.484 0V0ZM22.79 16.361L18.1 18.7C17.8799 18.8103 17.6307 18.8486 17.3876 18.8093C17.1446 18.7699 16.9201 18.6551 16.746 18.481L16.06 17.795C15.8961 17.632 15.6877 17.5211 15.461 17.4762C15.2343 17.4313 14.9993 17.4543 14.7857 17.5425C14.572 17.6306 14.3892 17.7799 14.2601 17.9716C14.1309 18.1633 14.0613 18.3889 14.06 18.62V36.484C14.06 36.7948 13.9365 37.0929 13.7167 37.3127C13.4969 37.5325 13.1988 37.656 12.888 37.656C12.5772 37.656 12.2791 37.5325 12.0593 37.3127C11.8395 37.0929 11.716 36.7948 11.716 36.484V24.684C11.716 24.3732 11.5925 24.0751 11.3727 23.8553C11.1529 23.6355 10.8548 23.512 10.544 23.512C10.2332 23.512 9.93506 23.6355 9.71527 23.8553C9.49548 24.0751 9.372 24.3732 9.372 24.684V36.484C9.372 36.7948 9.24852 37.0929 9.02873 37.3127C8.80894 37.5325 8.51083 37.656 8.2 37.656C7.88917 37.656 7.59106 37.5325 7.37127 37.3127C7.15148 37.0929 7.028 36.7948 7.028 36.484V15.313C7.028 15.0022 6.90452 14.7041 6.68473 14.4843C6.46494 14.2645 6.16683 14.141 5.856 14.141C5.54517 14.141 5.24706 14.2645 5.02727 14.4843C4.80748 14.7041 4.684 15.0022 4.684 15.313V22.344C4.684 22.6548 4.56052 22.9529 4.34073 23.1727C4.12094 23.3925 3.82283 23.516 3.512 23.516C3.20117 23.516 2.90306 23.3925 2.68327 23.1727C2.46348 22.9529 2.34 22.6548 2.34 22.344C2.34 21.46 2.34 16.035 2.34 15.313C2.34185 14.3808 2.71339 13.4874 3.3731 12.8289C4.03281 12.1703 4.92682 11.8003 5.859 11.8H12.89C13.0438 11.7996 13.1962 11.8297 13.3383 11.8886C13.4805 11.9475 13.6095 12.0339 13.718 12.143L17.211 15.636C17.3849 15.81 17.6091 15.9249 17.852 15.9644C18.0948 16.0039 18.3439 15.966 18.564 15.856L21.741 14.267C21.8789 14.1982 22.029 14.1572 22.1827 14.1464C22.3364 14.1356 22.4908 14.1552 22.6369 14.204C22.7831 14.2529 22.9182 14.33 23.0345 14.4311C23.1509 14.5321 23.2462 14.6551 23.315 14.793C23.3838 14.9309 23.4248 15.081 23.4356 15.2347C23.4464 15.3884 23.4268 15.5428 23.378 15.6889C23.3291 15.8351 23.252 15.9702 23.1509 16.0865C23.0499 16.2029 22.9269 16.2982 22.789 16.367L22.79 16.361ZM37.656 15.313C37.6557 15.6238 37.5322 15.9217 37.3124 16.1414C37.0927 16.3612 36.7948 16.4847 36.484 16.485H25.58C25.587 16.465 25.595 16.445 25.602 16.425C25.769 15.9275 25.822 15.3988 25.757 14.878L32.166 11.678C32.3039 11.6092 32.4269 11.5139 32.5279 11.3975C32.629 11.2812 32.7061 11.1461 32.755 10.9999C32.8038 10.8538 32.8234 10.6994 32.8126 10.5457C32.8018 10.392 32.7608 10.2419 32.692 10.104C32.6232 9.96611 32.5279 9.84313 32.4115 9.74207C32.2952 9.64101 32.1601 9.56386 32.0139 9.51501C31.8678 9.46617 31.7134 9.44659 31.5597 9.4574C31.406 9.46821 31.2559 9.50919 31.118 9.578L24.71 12.778C24.1866 12.2727 23.5193 11.9423 22.8001 11.8325C22.0809 11.7227 21.3453 11.8389 20.695 12.165L18.752 13.137V3.516C18.7523 3.20525 18.8758 2.9073 19.0956 2.68756C19.3153 2.46783 19.6132 2.34426 19.924 2.344H36.484C36.7948 2.34426 37.0927 2.46783 37.3124 2.68756C37.5322 2.9073 37.6557 3.20525 37.656 3.516V15.313Z" fill="white"/>
</svg>
