<svg width="20" height="20" viewBox="0 0 20 20" fill="none" xmlns="http://www.w3.org/2000/svg">
<g clip-path="url(#clip0_95:6529)">
<path d="M10.9525 7.70384C11.072 7.70384 11.1872 7.72305 11.2982 7.75507L13.3687 5.21718C13.501 5.05496 13.7465 5.02508 13.9066 5.16168C14.0624 5.29189 14.0837 5.52454 13.9535 5.68249L11.9066 8.19263C12.0453 8.38474 12.1285 8.62168 12.1285 8.87782C12.1285 9.35381 11.8425 9.76576 11.4348 9.9493H19.4669C19.7614 9.9493 20.0005 9.71026 20.0005 9.41569V2.66008C20.0005 2.36553 19.7614 2.12646 19.4669 2.12646H9.26409C8.96953 2.12646 8.73047 2.36553 8.73047 2.66008V7.09552L9.21286 7.70597H10.9525V7.70384Z" fill="#145FAA"/>
<path d="M4.29703 4.78766C5.50415 4.78766 6.48273 3.80909 6.48273 2.60196C6.48273 1.39483 5.50415 0.41626 4.29703 0.41626C3.0899 0.41626 2.11133 1.39483 2.11133 2.60196C2.11133 3.80909 3.0899 4.78766 4.29703 4.78766Z" fill="#145FAA"/>
<path d="M6.53789 19.0529C6.53789 19.3474 6.29883 19.5865 6.00427 19.5865H5.10779C4.81323 19.5865 4.57417 19.3474 4.57417 19.0529V14.579C4.57417 14.421 4.4461 14.293 4.28815 14.293C4.1302 14.293 4.00213 14.421 4.00213 14.579V19.0315C4.00213 19.3368 3.7524 19.5865 3.44717 19.5865H2.5699C2.27535 19.5865 2.03629 19.3474 2.03629 19.0529L2.03202 8.25242C2.03202 8.10728 1.91462 7.98777 1.76734 7.98777C1.6222 7.98777 1.50267 8.10517 1.50267 8.25242V12.4061C1.50267 12.7007 1.26361 12.9397 0.96905 12.9397H0.533618C0.239061 12.9397 0 12.7007 0 12.4061V6.71133C0 6.03471 0.548559 5.48828 1.22305 5.48828H6.08324C6.60403 5.48828 7.09712 5.72734 7.42156 6.13503L8.72783 7.78284L9.00318 8.13076C9.00318 8.13076 10.2412 8.13076 10.9541 8.13289C11.2486 8.13289 11.4877 8.37195 11.4877 8.66651V9.09127C11.4877 9.38583 11.2486 9.62489 10.9541 9.62489H8.64461C8.41622 9.62489 8.20064 9.5203 8.05976 9.34098L7.08645 8.09018C7.03735 8.02615 6.95838 7.98773 6.87727 7.98773H6.8111C6.66596 7.98773 6.54645 8.10512 6.54645 8.25238L6.53789 19.0529Z" fill="#145FAA"/>
</g>
<defs>
<clipPath id="clip0_95:6529">
<rect width="20" height="20" fill="white"/>
</clipPath>
</defs>
</svg>
