<svg width="109" height="141" viewBox="0 0 109 141" fill="none" xmlns="http://www.w3.org/2000/svg">
<path opacity="0.3" d="M45.2016 28.6612C44.9261 30.796 43.6656 32.441 42.3273 33.9797C41.2495 35.2186 39.9241 36.2435 38.725 37.3796C38.2225 37.8552 37.6971 37.6716 37.1818 37.4817C36.5844 37.2612 36.007 36.9863 35.2754 36.6723C34.9784 40.199 35.4331 43.4345 36.7736 46.7565C36.1526 46.6792 35.8128 46.6856 35.5052 46.5913C33.3047 45.9173 31.4461 44.6288 29.6631 43.2467C27.2706 41.3912 25.0586 39.3372 23.8945 36.4667C23.4134 35.281 23.1479 34.0003 22.8745 32.7437C22.7254 32.0583 22.4791 31.6231 21.7903 31.2999C15.1502 28.1842 10.2253 23.2492 6.74286 16.9044C4.6958 13.1749 3.16623 9.21861 2.43034 5.00222C2.21764 3.78458 1.77226 2.70868 0.77371 1.90778C0.582423 1.75398 0.412552 1.54845 0.29621 1.33299C-0.0228405 0.74047 0.1656 0.207484 0.822258 0.0735295C1.28834 -0.0221526 1.86004 -0.046948 2.27616 0.138037C3.75221 0.793637 5.29037 0.852466 6.85279 0.796475C16.4229 0.455563 24.4783 4.02767 31.4982 10.2314C32.8464 11.4228 34.1069 12.7149 35.371 13.9963C35.7964 14.428 36.1597 14.6647 36.8057 14.457C39.9676 13.4421 42.8926 14.2408 45.5835 15.8837C47.4157 17.0029 49.1037 18.3623 50.8082 19.6763C52.1836 20.7366 53.4876 21.8883 54.9373 23.0946C53.9302 23.6865 53.0715 23.0238 52.2257 23.1847C51.295 23.3618 50.3307 23.3618 49.3914 23.505C48.4999 23.6411 47.6198 23.8537 46.7383 24.0479C45.8611 24.2414 44.9889 24.454 44.0218 24.6794C44.4571 25.5724 44.8997 26.4917 45.3536 27.4053C45.5949 27.8922 45.7148 28.3487 45.1566 28.7101C45.1538 27.7313 44.4657 27.0885 43.9889 26.3393C43.6306 25.7759 43.3016 25.194 42.8705 24.471C46.1245 23.2435 49.2451 22.5454 52.7853 22.3327C51.9623 21.6601 51.4334 21.2193 50.8952 20.7898C49.4456 19.6331 48.0631 18.3772 46.5256 17.3509C43.7099 15.472 40.6949 14.1771 37.1625 15.0609C36.8763 15.1325 36.5573 15.0651 36.2604 15.1077C35.6544 15.1941 35.239 14.9595 34.8107 14.5272C33.3639 13.0693 31.925 11.5958 30.3754 10.2499C25.6346 6.13127 20.1936 3.38698 14.0039 2.07082C11.4587 1.52933 8.91342 1.50807 6.34674 1.52721C4.88354 1.53855 3.42817 1.53852 2.06489 0.85811C1.81507 0.733369 1.4475 0.840391 1.13488 0.840391C1.06635 0.914102 0.997842 0.988548 0.929322 1.06226C2.72585 2.27423 3.01849 4.1666 3.49599 5.9959C3.98563 7.87198 4.49954 9.74947 5.15691 11.5717C5.69794 13.07 6.40169 14.5208 7.14115 15.9369C10.0733 21.5566 14.1481 26.1302 19.7197 29.3175C20.5884 29.8143 21.3806 30.4466 22.2593 30.9215C23.1864 31.4225 23.5926 32.1504 23.7403 33.1647C24.0872 35.5425 25.0822 37.6525 26.7103 39.435C28.7502 41.6683 31.072 43.5642 33.7572 44.998C34.2597 45.2667 34.7686 45.5239 35.4067 45.8549C34.2033 39.5562 34.047 37.1238 34.7643 35.6056C35.4502 35.8927 36.1597 36.1428 36.8235 36.4802C37.5851 36.8679 38.139 36.8155 38.8456 36.218C41.0525 34.3525 42.9754 32.29 44.2844 29.6939C44.4829 29.3005 44.8897 29.0043 45.2016 28.6612Z" fill="#EA412C"/>
<path opacity="0.3" d="M47.2445 43.7721C47.5949 45.0422 47.8882 46.104 48.2703 47.4871C45.811 46.2537 43.7497 45.0824 42.5069 42.8684C41.4136 40.9213 41.6566 38.9282 42.6267 37.0305C43.6712 34.986 45.2348 33.3749 46.8231 31.744C48.2256 30.3038 49.52 30.5318 51.0037 31.2463C53.5972 32.4959 55.5423 34.3901 56.6989 37.4471C55.2565 36.5992 54.126 35.5451 52.338 35.6094C55.0431 38.9657 57.49 42.2634 58.5902 46.6144C54.5577 46.5347 50.9493 45.4714 47.2445 43.7721ZM50.9094 35.0347C50.9403 34.9217 50.9713 34.8088 51.003 34.6965C52.0681 34.7636 53.1332 34.8299 54.3938 34.909C53.1862 33.4187 51.8684 32.3815 50.2518 31.7645C48.5774 31.1256 48.0183 31.2979 46.8279 32.6908C46.4128 33.1772 45.9391 33.6149 45.5583 34.1268C44.7969 35.1483 43.9659 36.1431 43.3765 37.2664C42.7672 38.4263 42.2942 39.666 42.6646 41.1027C43.2615 43.4177 44.8691 44.6963 46.9773 45.912C46.7247 44.1774 45.6506 43.0174 45.3538 41.52C47.168 42.8621 49.0697 43.95 51.1882 44.5473C53.2434 45.1269 55.3027 45.7602 57.5823 45.7715C56.8924 43.5688 55.8975 41.7522 54.714 40.0607C53.5091 38.3387 52.1824 36.7065 50.9094 35.0347Z" fill="#EA412C"/>
<path opacity="0.3" d="M12.2181 10.229C12.2335 8.6878 12.9473 8.03143 14.6032 8.03628C17.3463 8.0439 19.208 10.6514 18.0685 12.8884C17.46 14.0828 16.1092 14.7509 14.6323 14.5868C12.9611 14.4013 11.4129 13.3115 11.1516 12.1372C10.971 11.3257 11.2907 10.7566 12.2496 10.1819C11.7686 12.3823 12.3349 13.3135 14.4103 13.7906C15.4161 14.0218 16.2813 13.7677 16.8798 13.0747C17.4823 12.3768 17.8411 11.566 17.42 10.6244C16.6647 8.93567 13.8355 7.76625 12.2181 10.229Z" fill="#EA412C"/>
<path opacity="0.3" d="M76.4193 62.829C73.1843 59.3849 70.0055 55.8878 66.627 51.924C69.5727 51.0135 72.2482 50.3672 74.7791 49.3542C77.2216 48.3774 79.5157 47.022 81.9689 46.0259C78.8187 50.3346 73.653 50.7482 68.9797 52.7018C71.7389 55.9867 74.8676 58.7482 77.1582 62.1754C76.912 62.3937 76.6656 62.6107 76.4193 62.829Z" fill="#EA412C"/>
<path opacity="0.3" d="M106.229 110.316C105.551 107.711 107.277 99.914 109 97.1658C108.478 101.996 107.876 106.269 106.229 110.316Z" fill="#EA412C"/>
<path opacity="0.3" d="M96.5801 128.912C98.8291 125.636 101.078 122.359 103.327 119.083C103.514 119.194 103.699 119.305 103.886 119.416C102.747 122.95 100.283 125.767 98.1409 128.751C97.924 129.052 97.3787 129.129 96.9861 129.311C96.8492 129.177 96.7146 129.044 96.5801 128.912Z" fill="#EA412C"/>
<path opacity="0.3" d="M97.3099 70.8652C95.6151 70.2398 89.8632 64.821 87.8125 62.0984C90.695 62.9774 96.0401 67.8045 97.3099 70.8652Z" fill="#EA412C"/>
<path opacity="0.3" d="M90.7355 134.425C88.8963 137.881 85.9577 139.667 82.6992 141C83.2338 138.948 85.1381 138.625 86.4246 137.549C87.7871 136.407 89.2921 135.458 90.7355 134.425Z" fill="#EA412C"/>
<path opacity="0.3" d="M107.538 89.1047C106.889 89.1047 106.404 89.1657 106.378 89.0963C105.188 85.9742 104.037 82.8402 103.154 79.6321C106.09 82.2103 106.562 85.599 107.538 89.1047Z" fill="#EA412C"/>
<path opacity="0.3" d="M81.9679 58.4456C78.9298 58.4278 76.7187 56.1496 73.9316 54.0621C76.4081 54.1686 80.5554 56.3744 81.9679 58.4456Z" fill="#EA412C"/>
</svg>
