<svg width="16" height="16" viewBox="0 0 16 16" fill="none" xmlns="http://www.w3.org/2000/svg">
<path d="M14.4932 1.88707C14.4267 1.60857 14.1207 1.41907 13.8432 1.51757C13.8432 1.51757 1.82271 5.76007 1.82071 5.76157C1.63621 5.83007 1.50071 6.00607 1.49071 6.20757C1.48171 6.40107 1.60121 6.60257 1.77771 6.68457L6.43371 8.85807C6.43371 8.85807 8.70221 6.58957 8.70621 6.58557C9.15621 6.13557 9.87471 6.83157 9.41321 7.29257L7.14071 9.56507C7.14071 9.56507 9.31121 14.2161 9.31521 14.2236C9.40371 14.3936 9.57671 14.5016 9.76671 14.5101C9.97321 14.5196 10.1642 14.3616 10.2382 14.1766C10.2382 14.1766 14.4782 2.16307 14.4807 2.15557C14.5122 2.06907 14.5142 1.97557 14.4932 1.88707V1.88707Z" fill="white"/>
</svg>
