<svg width="26" height="26" viewBox="0 0 26 26" fill="none" xmlns="http://www.w3.org/2000/svg">
<path fill-rule="evenodd" clip-rule="evenodd" d="M18.1691 10.3488C18.174 10.4634 18.1772 10.5779 18.1772 10.6941C18.1772 14.2179 15.4944 18.2821 10.5885 18.2821C9.08212 18.2821 7.68056 17.8409 6.5 17.0844C6.70881 17.1088 6.92088 17.121 7.13619 17.121C8.38581 17.121 9.5355 16.6952 10.4487 15.9794C9.28119 15.9583 8.29644 15.1873 7.95681 14.1278C8.12012 14.1586 8.28669 14.1749 8.45894 14.1749C8.70187 14.1749 8.9375 14.1424 9.16175 14.0814C7.94138 13.8369 7.02244 12.7587 7.02244 11.4668V11.4327C7.38156 11.6326 7.7935 11.7528 8.23063 11.7666C7.51481 11.2881 7.04356 10.4715 7.04356 9.54688C7.04356 9.05775 7.17519 8.5995 7.40513 8.20544C8.72056 9.81906 10.686 10.881 12.9025 10.9923C12.857 10.7973 12.8334 10.5934 12.8334 10.3846C12.8334 8.9115 14.0278 7.71712 15.5001 7.71712C16.2679 7.71712 16.9609 8.04131 17.4468 8.55969C18.0546 8.44025 18.6257 8.21844 19.1409 7.91294C18.9418 8.53531 18.5185 9.05775 17.9684 9.38844C18.5079 9.32344 19.0214 9.18044 19.5 8.96838C19.1425 9.503 18.6899 9.97263 18.1691 10.3488ZM13 0C5.81994 0 0 5.81994 0 13C0 20.1793 5.81994 26 13 26C20.1801 26 26 20.1793 26 13C26 5.81994 20.1801 0 13 0" fill="#41A1F2"/>
</svg>
