<svg width="20" height="20" viewBox="0 0 20 20" fill="none" xmlns="http://www.w3.org/2000/svg">
<path d="M17.0707 2.92857C15.6721 1.53015 13.8903 0.577846 11.9505 0.192077C10.0107 -0.193692 8.00013 0.00440052 6.17293 0.761307C4.34573 1.51821 2.784 2.79994 1.68523 4.44441C0.586464 6.08887 0 8.02223 0 10C0 11.9778 0.586464 13.9111 1.68523 15.5556C2.784 17.2001 4.34573 18.4818 6.17293 19.2387C8.00013 19.9956 10.0107 20.1937 11.9505 19.8079C13.8903 19.4222 15.6721 18.4698 17.0707 17.0714C17.9994 16.1428 18.7361 15.0404 19.2387 13.8271C19.7413 12.6137 20 11.3133 20 10C20 8.6867 19.7413 7.38625 19.2387 6.17293C18.7361 4.95961 17.9994 3.85717 17.0707 2.92857ZM13.5707 12.5286C13.6421 12.5954 13.699 12.6761 13.7378 12.7658C13.7767 12.8555 13.7968 12.9522 13.7968 13.05C13.7968 13.1478 13.7767 13.2445 13.7378 13.3342C13.699 13.4239 13.6421 13.5046 13.5707 13.5714C13.504 13.6376 13.4248 13.69 13.3378 13.7255C13.2507 13.7611 13.1576 13.7791 13.0636 13.7786C12.8762 13.7778 12.6966 13.7034 12.5636 13.5714L9.99927 11.0071L7.4707 13.5714C7.33766 13.7034 7.15809 13.7778 6.9707 13.7786C6.8767 13.7791 6.78351 13.7611 6.69649 13.7255C6.60946 13.69 6.5303 13.6376 6.46356 13.5714C6.33052 13.4376 6.25585 13.2566 6.25585 13.0679C6.25585 12.8792 6.33052 12.6981 6.46356 12.5643L8.99213 10L6.46356 7.47143C6.34654 7.33479 6.2854 7.15902 6.29234 6.97925C6.29928 6.79948 6.37381 6.62895 6.50102 6.50174C6.62823 6.37453 6.79875 6.30001 6.97852 6.29307C7.15829 6.28612 7.33406 6.34727 7.4707 6.46429L9.99927 8.99286L12.5278 6.46429C12.594 6.39581 12.6729 6.34103 12.7602 6.30308C12.8475 6.26512 12.9415 6.24473 13.0366 6.24307C13.1318 6.24142 13.2264 6.25852 13.315 6.29341C13.4035 6.3283 13.4844 6.3803 13.5528 6.44643C13.6213 6.51256 13.6761 6.59153 13.7141 6.67883C13.752 6.76613 13.7724 6.86005 13.7741 6.95523C13.7757 7.05041 13.7586 7.14499 13.7237 7.23356C13.6888 7.32212 13.6368 7.40296 13.5707 7.47143L11.0064 10L13.5707 12.5286Z" fill="#EA412C"/>
</svg>
