<svg width="40" height="40" viewBox="0 0 40 40" fill="none" xmlns="http://www.w3.org/2000/svg">
<g clip-path="url(#clip0_5:4086)">
<path d="M21.9049 15.4067C22.144 15.4067 22.3745 15.4451 22.5965 15.5092L26.7373 10.4334C27.002 10.1089 27.493 10.0492 27.8131 10.3224C28.1248 10.5828 28.1674 11.0481 27.907 11.364L23.8131 16.3843C24.0906 16.7685 24.2571 17.2424 24.2571 17.7547C24.2571 18.7066 23.6851 19.5305 22.8697 19.8976H38.9337C39.5228 19.8976 40.001 19.4196 40.001 18.8304V5.31919C40.001 4.73007 39.5228 4.25195 38.9337 4.25195H18.5282C17.9391 4.25195 17.4609 4.73007 17.4609 5.31919V14.1901L18.4257 15.411H21.9049V15.4067Z" fill="white"/>
<path d="M8.5921 9.57483C11.0064 9.57483 12.9635 7.61769 12.9635 5.20343C12.9635 2.78917 11.0064 0.832031 8.5921 0.832031C6.17784 0.832031 4.2207 2.78917 4.2207 5.20343C4.2207 7.61769 6.17784 9.57483 8.5921 9.57483Z" fill="white"/>
<path d="M13.0758 38.1047C13.0758 38.6939 12.5977 39.172 12.0085 39.172H10.2156C9.62647 39.172 9.14834 38.6939 9.14834 38.1047V29.157C9.14834 28.8411 8.89221 28.585 8.57631 28.585C8.2604 28.585 8.00427 28.8411 8.00427 29.157V38.062C8.00427 38.6725 7.5048 39.172 6.89434 39.172H5.13981C4.55069 39.172 4.07257 38.6939 4.07257 38.1047L4.06403 16.5039C4.06403 16.2136 3.82924 15.9746 3.53469 15.9746C3.2444 15.9746 3.00534 16.2094 3.00534 16.5039V24.8112C3.00534 25.4003 2.52721 25.8785 1.9381 25.8785H1.06724C0.478122 25.8785 0 25.4003 0 24.8112V13.4217C0 12.0684 1.09712 10.9756 2.4461 10.9756H12.1665C13.2081 10.9756 14.1942 11.4537 14.8431 12.2691L17.4557 15.5647L18.0064 16.2605C18.0064 16.2605 20.4823 16.2605 21.9082 16.2648C22.4973 16.2648 22.9754 16.7429 22.9754 17.332V18.1816C22.9754 18.7707 22.4973 19.2488 21.9082 19.2488H17.2892C16.8324 19.2488 16.4013 19.0396 16.1195 18.681L14.1729 16.1794C14.0747 16.0513 13.9168 15.9745 13.7545 15.9745H13.6222C13.3319 15.9745 13.0929 16.2093 13.0929 16.5038L13.0758 38.1047Z" fill="white"/>
</g>
<defs>
<clipPath id="clip0_5:4086">
<rect width="40" height="40" fill="white"/>
</clipPath>
</defs>
</svg>
