<svg width="80" height="80" viewBox="0 0 80 80" fill="none" xmlns="http://www.w3.org/2000/svg">
<path opacity="0.3" d="M54.92 55.1925C55.6654 57.011 56.3546 58.5963 56.9654 60.2102C57.462 61.5221 57.2323 62.0958 55.9828 62.7219C55.3646 63.0321 54.687 63.249 54.0134 63.4225C50.4739 64.3334 46.9245 65.2083 43.3842 66.1167C42.4272 66.3622 41.4082 66.5374 40.5669 67.0063C39.8637 67.3983 39.2347 68.0932 38.8339 68.7986C38.3521 69.6457 38.9158 70.5942 39.9232 70.6941C40.7116 70.7726 41.5818 70.7285 42.3231 70.4756C46.4411 69.0687 50.5401 67.6029 54.625 66.1028C55.4316 65.8065 56.1704 65.3048 56.9018 64.8383C57.7654 64.2867 57.962 63.8849 58.1297 62.6613C59.0041 63.2015 58.9752 63.8963 58.4388 64.5298C57.9637 65.0912 57.3752 65.6068 56.7389 65.9775C53.5597 67.8321 50.0747 68.9795 46.5906 70.1015C44.775 70.6859 42.899 71.0893 41.0826 71.6721C40.7173 71.7891 40.4967 72.3456 40.2091 72.7C40.2636 72.8252 40.319 72.9504 40.3736 73.0748C40.9711 73.0748 41.5991 73.1959 42.1602 73.0552C45.8733 72.1214 49.5764 71.1491 53.2697 70.1424C53.9316 69.9624 54.549 69.5933 55.1597 69.2619C56.8538 68.342 57.1587 67.9647 57.8198 65.9465C57.9512 66.3917 58.0711 66.6061 58.0687 66.8189C58.0571 67.7805 58.0323 68.6988 58.3389 69.6743C58.7215 70.893 57.9645 71.9151 57.0043 72.6492C56.4291 73.0887 56.2389 73.5364 56.2464 74.2484C56.2786 77.4075 54.2159 79.6065 50.9606 79.9298C50.2094 80.0043 49.4459 79.9863 48.6889 79.965C46.1651 79.893 44.8576 78.8774 44.1816 76.4982C40.2479 76.1062 38.7993 74.6838 39.4439 71.848C37.4497 70.1318 37.3175 69.6342 38.5116 67.2886C38.8166 66.6896 38.791 66.2583 38.5026 65.6911C37.5605 63.8407 36.6547 61.9722 35.7762 60.0915C35.4647 59.4245 35.1308 58.931 34.2986 58.8263C29.8839 58.2673 26.4105 56.083 23.9528 52.4746C19.6571 46.1671 18.244 39.2843 21.3207 32.1608C24.2561 25.3647 29.698 21.2424 37.1464 19.9968C43.2371 18.9787 48.8616 20.3364 53.8076 23.9325C58.7917 27.5556 61.2916 32.5758 61.5974 38.7114C61.8527 43.8273 60.4322 48.3825 57.2703 52.4132C56.5249 53.3626 55.7109 54.2604 54.92 55.1925ZM47.9253 40.2222C48.2922 39.966 48.5641 39.7516 48.8591 39.5732C50.4483 38.6132 51.5416 38.871 52.5474 40.3965C53.4572 41.7755 53.3193 43.1905 52.4764 44.4615C51.4276 46.0427 50.2467 47.5469 49.0195 48.9996C47.9889 50.2191 47.4063 51.5138 47.6493 53.1154C47.7956 54.0811 47.8815 55.0608 48.0988 56.0101C48.6674 58.5006 49.2938 60.9779 49.9153 63.5363C52.1301 62.9151 54.4374 62.789 56.4315 61.2414C55.7803 59.6643 55.2365 58.0873 54.4861 56.6125C53.8721 55.4053 54.2547 54.51 54.996 53.6155C55.5852 52.9043 56.2513 52.2528 56.8075 51.5187C60.5363 46.5968 61.6139 41.043 60.2289 35.1488C58.0934 26.0595 50.4277 21.1197 41.6462 20.6327C35.4143 20.2865 30.1327 22.4463 25.8527 26.977C22.9404 30.06 21.067 33.5677 20.7967 37.8807C20.5711 41.4662 21.0414 44.9305 22.4843 48.1861C24.1288 51.896 26.4948 55.1132 30.4203 56.7573C32.1582 57.4857 34.0458 57.8663 35.9523 58.4302C37.1588 60.9263 38.4282 63.5534 39.7223 66.2321C41.476 65.723 43.0065 65.2786 44.7279 64.7786C43.5362 61.7325 42.4305 58.7706 41.2198 55.8505C40.0628 53.0589 38.2183 50.8214 35.5407 49.2722C34.5457 48.696 33.5937 47.9938 32.764 47.2024C30.8798 45.4052 31.1169 43.5948 33.3177 42.2494C35.1763 41.1126 37.353 40.9571 39.3951 40.4227C40.2884 40.1886 41.3338 40.5258 42.3388 40.606C44.5155 38.2531 45.4675 38.168 47.9253 40.2222ZM49.0649 63.7237C48.3368 60.6096 47.7038 57.8115 47.0245 55.0248C46.3493 52.2545 46.7608 49.8164 48.9046 47.7319C49.8516 46.812 50.6541 45.7227 51.3954 44.626C52.0871 43.6022 52.473 42.4417 51.9416 41.1912C51.5077 40.1698 50.7781 39.777 49.8946 40.0618C48.9145 40.3777 48.5211 41.1118 48.755 42.2003C48.8029 42.4237 48.9831 42.7093 48.9012 42.8517C48.6616 43.2658 48.3839 43.7487 47.9889 43.9443C47.8104 44.0327 47.1658 43.5711 47.0145 43.2339C46.8534 42.8779 46.922 42.3337 47.0757 41.9433C47.4005 41.1191 47.0302 40.6117 46.4327 40.169C45.208 39.2597 44.1238 39.7009 43.4511 41.3573C43.866 41.8418 44.4155 42.2657 44.6444 42.8198C44.8328 43.2773 44.8362 44.0335 44.5643 44.3911C44.2858 44.7578 43.5147 45.0295 43.0668 44.919C42.6437 44.8143 42.2024 44.2062 42.0528 43.7323C41.8545 43.1022 41.9321 42.3868 41.89 41.6912C40.781 41.1339 39.7496 40.8384 38.5497 41.5415C38.7604 41.8148 38.905 41.9858 39.0307 42.1692C39.386 42.6872 39.8364 43.1701 40.0612 43.7405C40.4198 44.6465 40.0413 45.424 39.324 46.046C38.6001 46.6737 37.5993 46.866 36.901 46.5002C36.106 46.0844 35.9903 45.3634 36.0523 44.5753C36.1143 43.797 36.1894 43.0195 36.2646 42.1774C35.0457 42.2216 34.1556 42.7052 33.3499 43.3886C32.1243 44.4288 32.0409 45.3503 33.2383 46.4273C34.0937 47.1967 35.0606 47.8629 36.0432 48.4726C38.5778 50.0456 40.5364 52.1284 41.7429 54.83C42.704 56.9824 43.5271 59.1954 44.3858 61.392C44.7998 62.4518 45.1535 63.5346 45.5651 64.6943C46.7997 64.3514 47.8947 64.0478 49.0649 63.7237ZM40.7231 74.2632C41.4768 75.5423 42.6668 75.5726 43.7907 75.4425C47.3633 75.03 50.926 74.4923 54.2919 73.1747C55.2341 72.8056 56.0927 72.1468 56.8811 71.4937C57.6265 70.8758 57.8116 70.0058 57.5066 68.9615C52.3688 72.2278 46.5526 72.8907 40.7231 74.2632ZM45.0981 76.4409C45.313 77.7103 45.9865 78.3192 46.8617 78.7161C49.0087 79.6892 52.5672 79.1188 54.2374 77.4672C55.234 76.4819 55.8976 75.3042 55.5464 73.9554C52.0317 74.791 48.6145 75.6037 45.0981 76.4409ZM37.5216 42.4319C36.8506 43.4966 36.8233 44.5106 37.082 45.5836C38.0795 45.8872 38.7736 45.6458 39.1281 44.7717C39.4719 43.9246 38.8744 43.0498 37.5216 42.4319ZM42.9726 42.3787C42.9197 42.9033 42.823 43.1455 42.8949 43.319C43.0098 43.5956 43.2205 43.842 43.4329 44.0613C43.4701 44.0998 43.8445 43.9369 43.8428 43.8731C43.8346 43.5695 43.7949 43.2487 43.6751 42.972C43.6015 42.801 43.3651 42.6987 42.9726 42.3787Z" fill="#145FAA"/>
<path opacity="0.3" d="M79.3275 20.332C77.0193 21.737 74.924 22.9694 72.873 24.275C70.837 25.5709 69.2932 27.5798 66.8711 28.8463C69.0622 25.2697 76.6364 20.0846 79.3275 20.332Z" fill="#145FAA"/>
<path opacity="0.3" d="M34.0719 0C34.7539 4.27685 35.4063 8.36625 36.058 12.4564C35.1964 11.7018 35.0626 10.6925 34.8713 9.73746C34.3822 7.29563 33.9561 4.84006 33.5424 2.38287C33.4063 1.57647 33.2586 0.716713 34.0719 0Z" fill="#145FAA"/>
<path opacity="0.3" d="M67.5273 43.2785C69.3251 43.132 76.95 44.8981 78.017 45.674C77.2758 46.0097 77.2774 46.0045 74.6135 45.3294C73.4198 45.0269 72.2286 44.7096 71.018 44.4748C69.8106 44.2407 68.6186 44.0117 67.5273 43.2785Z" fill="#145FAA"/>
<path opacity="0.3" d="M9.71541 34.7468C6.49876 34.2945 3.28129 33.8428 0 33.3812C0.073645 32.6974 0.742162 32.7569 1.25195 32.8093C2.84104 32.9721 4.4236 33.1873 6.00287 33.4138C6.73605 33.5193 7.46678 33.6658 8.17786 33.852C8.74574 34.0007 9.28333 34.2385 9.83403 34.4368C9.79394 34.5401 9.75468 34.6435 9.71541 34.7468Z" fill="#145FAA"/>
<path opacity="0.3" d="M55.0703 13.7675C56.1895 10.4236 59.0203 7.43168 61.6263 6.55591C61.5742 6.86748 61.6161 7.24729 61.4827 7.32139C59.3812 8.49694 57.9935 10.352 56.5726 12.1878C56.1305 12.7579 55.5748 13.2429 55.0703 13.7675Z" fill="#145FAA"/>
<path opacity="0.3" d="M15.0801 51.137C13.6098 53.8215 10.3344 57.3888 9.17969 57.693C9.51301 56.49 12.9809 52.5623 15.0801 51.137Z" fill="#145FAA"/>
<path opacity="0.3" d="M11.8008 13.7676C14.1383 13.8047 18.5631 16.3961 19.668 18.3568C17.1516 16.8894 14.6351 15.4212 11.8008 13.7676Z" fill="#145FAA"/>
<path opacity="0.3" d="M54.92 55.1925C55.6654 57.011 56.3546 58.5963 56.9654 60.2102C57.462 61.5221 57.2323 62.0958 55.9828 62.7219C55.3646 63.0321 54.687 63.249 54.0134 63.4225C50.4739 64.3334 46.9245 65.2083 43.3842 66.1167C42.4272 66.3622 41.4082 66.5374 40.5669 67.0063C39.8637 67.3983 39.2347 68.0932 38.8339 68.7986C38.3521 69.6457 38.9158 70.5942 39.9232 70.6941C40.7116 70.7726 41.5818 70.7285 42.3231 70.4756C46.4411 69.0687 50.5401 67.6029 54.625 66.1028C55.4316 65.8065 56.1704 65.3048 56.9018 64.8383C57.7654 64.2867 57.962 63.8849 58.1297 62.6613C59.0041 63.2015 58.9752 63.8963 58.4388 64.5298C57.9637 65.0912 57.3752 65.6068 56.7389 65.9775C53.5597 67.8321 50.0747 68.9795 46.5906 70.1015C44.775 70.6859 42.899 71.0893 41.0826 71.6721C40.7173 71.7891 40.4967 72.3456 40.2091 72.7C40.2636 72.8252 40.319 72.9504 40.3736 73.0748C40.9711 73.0748 41.5991 73.1959 42.1602 73.0552C45.8733 72.1214 49.5764 71.1491 53.2697 70.1424C53.9316 69.9624 54.549 69.5933 55.1597 69.2619C56.8538 68.342 57.1587 67.9647 57.8198 65.9465C57.9512 66.3917 58.0711 66.6061 58.0687 66.8189C58.0571 67.7805 58.0323 68.6988 58.3389 69.6743C58.7215 70.893 57.9645 71.9151 57.0043 72.6492C56.4291 73.0887 56.2389 73.5364 56.2464 74.2484C56.2786 77.4075 54.2159 79.6065 50.9606 79.9298C50.2094 80.0043 49.4459 79.9863 48.6889 79.965C46.1651 79.893 44.8576 78.8774 44.1816 76.4982C40.2479 76.1062 38.7993 74.6838 39.4439 71.848C37.4497 70.1318 37.3175 69.6342 38.5116 67.2886C38.8166 66.6896 38.791 66.2583 38.5026 65.6911C37.5605 63.8407 36.6547 61.9722 35.7762 60.0915C35.4647 59.4245 35.1308 58.931 34.2986 58.8263C29.8839 58.2673 26.4105 56.083 23.9528 52.4746C19.6571 46.1671 18.244 39.2843 21.3207 32.1608C24.2561 25.3647 29.698 21.2424 37.1464 19.9968C43.2371 18.9787 48.8616 20.3364 53.8076 23.9325C58.7917 27.5556 61.2916 32.5758 61.5974 38.7114C61.8527 43.8273 60.4322 48.3825 57.2703 52.4132C56.5249 53.3626 55.7109 54.2604 54.92 55.1925ZM47.9253 40.2222C48.2922 39.966 48.5641 39.7516 48.8591 39.5732C50.4483 38.6132 51.5416 38.871 52.5474 40.3965C53.4572 41.7755 53.3193 43.1905 52.4764 44.4615C51.4276 46.0427 50.2467 47.5469 49.0195 48.9996C47.9889 50.2191 47.4063 51.5138 47.6493 53.1154C47.7956 54.0811 47.8815 55.0608 48.0988 56.0101C48.6674 58.5006 49.2938 60.9779 49.9153 63.5363C52.1301 62.9151 54.4374 62.789 56.4315 61.2414C55.7803 59.6643 55.2365 58.0873 54.4861 56.6125C53.8721 55.4053 54.2547 54.51 54.996 53.6155C55.5852 52.9043 56.2513 52.2528 56.8075 51.5187C60.5363 46.5968 61.6139 41.043 60.2289 35.1488C58.0934 26.0595 50.4277 21.1197 41.6462 20.6327C35.4143 20.2865 30.1327 22.4463 25.8527 26.977C22.9404 30.06 21.067 33.5677 20.7967 37.8807C20.5711 41.4662 21.0414 44.9305 22.4843 48.1861C24.1288 51.896 26.4948 55.1132 30.4203 56.7573C32.1582 57.4857 34.0458 57.8663 35.9523 58.4302C37.1588 60.9263 38.4282 63.5534 39.7223 66.2321C41.476 65.723 43.0065 65.2786 44.7279 64.7786C43.5362 61.7325 42.4305 58.7706 41.2198 55.8505C40.0628 53.0589 38.2183 50.8214 35.5407 49.2722C34.5457 48.696 33.5937 47.9938 32.764 47.2024C30.8798 45.4052 31.1169 43.5948 33.3177 42.2494C35.1763 41.1126 37.353 40.9571 39.3951 40.4227C40.2884 40.1886 41.3338 40.5258 42.3388 40.606C44.5155 38.2531 45.4675 38.168 47.9253 40.2222ZM49.0649 63.7237C48.3368 60.6096 47.7038 57.8115 47.0245 55.0248C46.3493 52.2545 46.7608 49.8164 48.9046 47.7319C49.8516 46.812 50.6541 45.7227 51.3954 44.626C52.0871 43.6022 52.473 42.4417 51.9416 41.1912C51.5077 40.1698 50.7781 39.777 49.8946 40.0618C48.9145 40.3777 48.5211 41.1118 48.755 42.2003C48.8029 42.4237 48.9831 42.7093 48.9012 42.8517C48.6616 43.2658 48.3839 43.7487 47.9889 43.9443C47.8104 44.0327 47.1658 43.5711 47.0145 43.2339C46.8534 42.8779 46.922 42.3337 47.0757 41.9433C47.4005 41.1191 47.0302 40.6117 46.4327 40.169C45.208 39.2597 44.1238 39.7009 43.4511 41.3573C43.866 41.8418 44.4155 42.2657 44.6444 42.8198C44.8328 43.2773 44.8362 44.0335 44.5643 44.3911C44.2858 44.7578 43.5147 45.0295 43.0668 44.919C42.6437 44.8143 42.2024 44.2062 42.0528 43.7323C41.8545 43.1022 41.9321 42.3868 41.89 41.6912C40.781 41.1339 39.7496 40.8384 38.5497 41.5415C38.7604 41.8148 38.905 41.9858 39.0307 42.1692C39.386 42.6872 39.8364 43.1701 40.0612 43.7405C40.4198 44.6465 40.0413 45.424 39.324 46.046C38.6001 46.6737 37.5993 46.866 36.901 46.5002C36.106 46.0844 35.9903 45.3634 36.0523 44.5753C36.1143 43.797 36.1894 43.0195 36.2646 42.1774C35.0457 42.2216 34.1556 42.7052 33.3499 43.3886C32.1243 44.4288 32.0409 45.3503 33.2383 46.4273C34.0937 47.1967 35.0606 47.8629 36.0432 48.4726C38.5778 50.0456 40.5364 52.1284 41.7429 54.83C42.704 56.9824 43.5271 59.1954 44.3858 61.392C44.7998 62.4518 45.1535 63.5346 45.5651 64.6943C46.7997 64.3514 47.8947 64.0478 49.0649 63.7237ZM40.7231 74.2632C41.4768 75.5423 42.6668 75.5726 43.7907 75.4425C47.3633 75.03 50.926 74.4923 54.2919 73.1747C55.2341 72.8056 56.0927 72.1468 56.8811 71.4937C57.6265 70.8758 57.8116 70.0058 57.5066 68.9615C52.3688 72.2278 46.5526 72.8907 40.7231 74.2632ZM45.0981 76.4409C45.313 77.7103 45.9865 78.3192 46.8617 78.7161C49.0087 79.6892 52.5672 79.1188 54.2374 77.4672C55.234 76.4819 55.8976 75.3042 55.5464 73.9554C52.0317 74.791 48.6145 75.6037 45.0981 76.4409ZM37.5216 42.4319C36.8506 43.4966 36.8233 44.5106 37.082 45.5836C38.0795 45.8872 38.7736 45.6458 39.1281 44.7717C39.4719 43.9246 38.8744 43.0498 37.5216 42.4319ZM42.9726 42.3787C42.9197 42.9033 42.823 43.1455 42.8949 43.319C43.0098 43.5956 43.2205 43.842 43.4329 44.0613C43.4701 44.0998 43.8445 43.9369 43.8428 43.8731C43.8346 43.5695 43.7949 43.2487 43.6751 42.972C43.6015 42.801 43.3651 42.6987 42.9726 42.3787Z" fill="#145FAA"/>
<path opacity="0.3" d="M79.3275 20.332C77.0193 21.737 74.924 22.9694 72.873 24.275C70.837 25.5709 69.2932 27.5798 66.8711 28.8463C69.0622 25.2697 76.6364 20.0846 79.3275 20.332Z" fill="#145FAA"/>
<path opacity="0.3" d="M34.0719 0C34.7539 4.27685 35.4063 8.36625 36.058 12.4564C35.1964 11.7018 35.0626 10.6925 34.8713 9.73746C34.3822 7.29563 33.9561 4.84006 33.5424 2.38287C33.4063 1.57647 33.2586 0.716713 34.0719 0Z" fill="#145FAA"/>
<path opacity="0.3" d="M67.5273 43.2785C69.3251 43.132 76.95 44.8981 78.017 45.674C77.2758 46.0097 77.2774 46.0045 74.6135 45.3294C73.4198 45.0269 72.2286 44.7096 71.018 44.4748C69.8106 44.2407 68.6186 44.0117 67.5273 43.2785Z" fill="#145FAA"/>
<path opacity="0.3" d="M9.71541 34.7468C6.49876 34.2945 3.28129 33.8428 0 33.3812C0.073645 32.6974 0.742162 32.7569 1.25195 32.8093C2.84104 32.9721 4.4236 33.1873 6.00287 33.4138C6.73605 33.5193 7.46678 33.6658 8.17786 33.852C8.74574 34.0007 9.28333 34.2385 9.83403 34.4368C9.79394 34.5401 9.75468 34.6435 9.71541 34.7468Z" fill="#145FAA"/>
<path opacity="0.3" d="M55.0703 13.7675C56.1895 10.4236 59.0203 7.43168 61.6263 6.55591C61.5742 6.86748 61.6161 7.24729 61.4827 7.32139C59.3812 8.49694 57.9935 10.352 56.5726 12.1878C56.1305 12.7579 55.5748 13.2429 55.0703 13.7675Z" fill="#145FAA"/>
<path opacity="0.3" d="M15.0801 51.137C13.6098 53.8215 10.3344 57.3888 9.17969 57.693C9.51301 56.49 12.9809 52.5623 15.0801 51.137Z" fill="#145FAA"/>
<path opacity="0.3" d="M11.8008 13.7676C14.1383 13.8047 18.5631 16.3961 19.668 18.3568C17.1516 16.8894 14.6351 15.4212 11.8008 13.7676Z" fill="#145FAA"/>
</svg>
