<svg width="40" height="40" viewBox="0 0 40 40" fill="none" xmlns="http://www.w3.org/2000/svg">
<g clip-path="url(#clip0_13:9088)">
<path d="M34 6H32V2C32 1.46957 31.7893 0.960859 31.4142 0.585786C31.0391 0.210714 30.5304 0 30 0C29.4696 0 28.9609 0.210714 28.5858 0.585786C28.2107 0.960859 28 1.46957 28 2V6H12V2C12 1.46957 11.7893 0.960859 11.4142 0.585786C11.0391 0.210714 10.5304 0 10 0C9.46957 0 8.96086 0.210714 8.58579 0.585786C8.21071 0.960859 8 1.46957 8 2V6H6C4.4087 6 2.88258 6.63214 1.75736 7.75736C0.632141 8.88258 0 10.4087 0 12V14H40V12C40 10.4087 39.3679 8.88258 38.2426 7.75736C37.1174 6.63214 35.5913 6 34 6Z" fill="#F89E1B"/>
<path d="M0 34C0 35.5913 0.632141 37.1174 1.75736 38.2426C2.88258 39.3678 4.4087 40 6 40H34C35.5913 40 37.1174 39.3678 38.2426 38.2426C39.3679 37.1174 40 35.5913 40 34V18H0V34Z" fill="#F89E1B"/>
</g>
<defs>
<clipPath id="clip0_13:9088">
<rect width="40" height="40" fill="white"/>
</clipPath>
</defs>
</svg>
