<svg width="16" height="16" viewBox="0 0 16 16" fill="none" xmlns="http://www.w3.org/2000/svg">
<g clip-path="url(#clip0_75:13572)">
<path d="M13.7866 11.1361C12.82 10.3094 11.8391 9.80864 10.8844 10.6341L10.3144 11.133C9.89727 11.4951 9.12178 13.1872 6.12345 9.73808C3.12576 6.29332 4.90964 5.75697 5.32736 5.39794L5.90055 4.89843C6.85024 4.07112 6.49184 3.02963 5.80689 1.95755L5.39354 1.30819C4.70546 0.238608 3.9562 -0.463831 3.004 0.362237L2.4895 0.811798C2.06866 1.11837 0.892312 2.1149 0.606966 4.00805C0.263551 6.27958 1.34687 8.88079 3.82882 11.7349C6.30765 14.5902 8.73465 16.0244 11.0337 15.9995C12.9443 15.9789 14.0982 14.9536 14.4591 14.5809L14.9754 14.1307C15.9251 13.3052 15.3351 12.4648 14.3679 11.6362L13.7866 11.1361Z" fill="#145FAA"/>
</g>
<defs>
<clipPath id="clip0_75:13572">
<rect width="16" height="16" fill="white"/>
</clipPath>
</defs>
</svg>
