<svg width="26" height="26" viewBox="0 0 26 26" fill="none" xmlns="http://www.w3.org/2000/svg">
<path d="M21.442 0.527344H4.558C3.34946 0.528932 2.19088 1.0098 1.33641 1.86446C0.481932 2.71912 0.00132295 3.8778 0 5.08634L0 15.5003C0.00158752 16.7087 0.482314 17.8671 1.33676 18.7216C2.19121 19.576 3.34963 20.0568 4.558 20.0583H15.312L20.46 25.2063C20.5876 25.3336 20.75 25.4202 20.9268 25.4552C21.1036 25.4902 21.2868 25.4721 21.4532 25.4031C21.6197 25.3341 21.762 25.2173 21.8622 25.0675C21.9623 24.9177 22.0159 24.7415 22.016 24.5613V20.0193C23.1155 19.8783 24.1262 19.3419 24.8593 18.5103C25.5924 17.6788 25.9978 16.6089 26 15.5003V5.08634C25.9987 3.8778 25.5181 2.71912 24.6636 1.86446C23.8091 1.0098 22.6505 0.528932 21.442 0.527344V0.527344ZM24.177 15.4993C24.1762 16.2245 23.8878 16.9197 23.3751 17.4324C22.8623 17.9451 22.1671 18.2336 21.442 18.2343H21.1C20.8581 18.2343 20.6262 18.3304 20.4551 18.5015C20.2841 18.6725 20.188 18.9045 20.188 19.1463V22.3603L16.33 18.5023C16.2453 18.4176 16.1448 18.3504 16.0341 18.3046C15.9234 18.2588 15.8048 18.2353 15.685 18.2353H4.558C3.83288 18.2345 3.13768 17.9461 2.62494 17.4334C2.1122 16.9207 1.82379 16.2255 1.823 15.5003V5.08634C1.82379 4.36122 2.1122 3.66602 2.62494 3.15328C3.13768 2.64054 3.83288 2.35214 4.558 2.35134H21.442C22.1671 2.35214 22.8623 2.64054 23.3751 3.15328C23.8878 3.66602 24.1762 4.36122 24.177 5.08634V15.4993Z" fill="white"/>
<path d="M19.7099 6.98195H6.28985C6.16761 6.9779 6.04581 6.99848 5.93168 7.04246C5.81756 7.08644 5.71344 7.15293 5.62554 7.23798C5.53764 7.32302 5.46774 7.42487 5.42 7.53747C5.37226 7.65008 5.34766 7.77114 5.34766 7.89345C5.34766 8.01575 5.37226 8.13681 5.42 8.24942C5.46774 8.36202 5.53764 8.46387 5.62554 8.54892C5.71344 8.63396 5.81756 8.70045 5.93168 8.74443C6.04581 8.78842 6.16761 8.80899 6.28985 8.80495H19.7099C19.8321 8.80899 19.9539 8.78842 20.068 8.74443C20.1821 8.70045 20.2863 8.63396 20.3742 8.54892C20.4621 8.46387 20.532 8.36202 20.5797 8.24942C20.6274 8.13681 20.652 8.01575 20.652 7.89345C20.652 7.77114 20.6274 7.65008 20.5797 7.53747C20.532 7.42487 20.4621 7.32302 20.3742 7.23798C20.2863 7.15293 20.1821 7.08644 20.068 7.04246C19.9539 6.99848 19.8321 6.9779 19.7099 6.98195V6.98195Z" fill="white"/>
<path d="M19.7099 12.0884H6.28985C6.16761 12.0843 6.04581 12.1049 5.93168 12.1489C5.81756 12.1929 5.71344 12.2594 5.62554 12.3444C5.53764 12.4295 5.46774 12.5313 5.42 12.6439C5.37226 12.7565 5.34766 12.8776 5.34766 12.9999C5.34766 13.1222 5.37226 13.2433 5.42 13.3559C5.46774 13.4685 5.53764 13.5703 5.62554 13.6554C5.71344 13.7404 5.81756 13.8069 5.93168 13.8509C6.04581 13.8949 6.16761 13.9154 6.28985 13.9114H19.7099C19.8321 13.9154 19.9539 13.8949 20.068 13.8509C20.1821 13.8069 20.2863 13.7404 20.3742 13.6554C20.4621 13.5703 20.532 13.4685 20.5797 13.3559C20.6274 13.2433 20.652 13.1222 20.652 12.9999C20.652 12.8776 20.6274 12.7565 20.5797 12.6439C20.532 12.5313 20.4621 12.4295 20.3742 12.3444C20.2863 12.2594 20.1821 12.1929 20.068 12.1489C19.9539 12.1049 19.8321 12.0843 19.7099 12.0884V12.0884Z" fill="white"/>
</svg>
