<svg width="61" height="61" viewBox="0 0 61 61" fill="none" xmlns="http://www.w3.org/2000/svg">
<path opacity="0.2" d="M38.1626 5.74868L42.1939 4.37112C43.2314 4.01683 44.3671 4.08914 45.3512 4.57213C46.3354 5.05511 47.0874 5.90921 47.4419 6.94661L58.9085 40.5192C59.2631 41.5557 59.1918 42.6906 58.7103 43.6746C58.2287 44.6586 57.3763 45.4113 56.3402 45.7672L17.9368 58.8837C16.8993 59.238 15.7636 59.1657 14.7795 58.6827C13.7953 58.1997 13.0433 57.3456 12.6888 56.3082L1.22222 22.7356C1.0466 22.2219 0.973908 21.6786 1.0083 21.1368C1.0427 20.595 1.1835 20.0654 1.42268 19.578C1.66185 19.0907 1.99471 18.6552 2.40222 18.2965C2.80974 17.9378 3.28393 17.6629 3.79771 17.4876L7.63486 16.1839" stroke="#145FAA" stroke-opacity="0.6" stroke-width="2" stroke-linecap="round" stroke-linejoin="round"/>
<path opacity="0.2" d="M13.6543 14.1161L32.5272 7.67017" stroke="#145FAA" stroke-opacity="0.6" stroke-width="2" stroke-linecap="round" stroke-linejoin="round"/>
<g opacity="0.6">
<path opacity="0.2" d="M14.0393 16.2975C14.1632 16.66 14.2144 17.0434 14.19 17.4256C14.1657 17.8079 14.0662 18.1816 13.8974 18.5254C13.7286 18.8692 13.4937 19.1765 13.2061 19.4295C12.9185 19.6825 12.5839 19.8763 12.2214 20C11.8589 20.1238 11.4756 20.175 11.0934 20.1507C10.7111 20.1263 10.3374 20.027 9.99357 19.8581C9.64974 19.6893 9.34254 19.4544 9.08953 19.1668C8.83651 18.8792 8.64263 18.5446 8.51897 18.1821L6.86909 13.3527C6.6194 12.6207 6.67064 11.8194 7.01153 11.1251C7.35243 10.4308 7.95508 9.90033 8.687 9.65026V9.65026C9.04938 9.52639 9.4326 9.47513 9.81479 9.49938C10.197 9.52364 10.5707 9.62291 10.9145 9.79158C11.2583 9.96026 11.5655 10.195 11.8186 10.4824C12.0717 10.7698 12.2656 11.1043 12.3894 11.4667L14.0393 16.2975Z" stroke="#145FAA" stroke-width="2" stroke-linecap="round" stroke-linejoin="round"/>
<path opacity="0.2" d="M38.8784 7.81377C39.1281 8.54564 39.0771 9.34673 38.7365 10.041C38.3959 10.7352 37.7936 11.2658 37.0619 11.5162V11.5162C36.33 11.766 35.529 11.7149 34.8347 11.3743C34.1405 11.0337 33.6098 10.4314 33.3595 9.69976L31.711 4.87036C31.4613 4.1385 31.5123 3.33741 31.8529 2.64315C32.1935 1.9489 32.7959 1.41829 33.5275 1.16792V1.16792C34.2596 0.918228 35.0608 0.969457 35.7551 1.31035C36.4494 1.65125 36.9799 2.25391 37.2299 2.98583L38.8784 7.81377Z" stroke="#145FAA" stroke-width="2" stroke-linecap="round" stroke-linejoin="round"/>
</g>
<g opacity="0.6">
<path opacity="0.3" d="M19.5083 28.0091C20.3787 27.4955 21.3449 27.1653 22.3475 27.0386L27.2464 41.379C27.4839 42.0743 27.6534 42.6639 27.8808 43.3302C28.3154 43.1854 29.2034 42.8449 29.58 42.7175L31.5789 42.0337C31.8055 42.4252 31.9905 42.8394 32.1308 43.2693C32.2784 43.6862 32.3823 44.1173 32.4408 44.5556L21.516 48.2871C21.2952 47.9042 21.1137 47.4999 20.9742 47.0804C20.8219 46.6544 20.7146 46.2136 20.6541 45.7652L23.3194 44.8555C23.696 44.7266 24.5753 44.4586 24.9809 44.3195C24.7535 43.6532 24.5275 43.0839 24.2885 42.3886L22.0317 35.7819C21.784 35.0577 21.3364 33.4642 20.9786 32.2258C20.3044 33.9596 19.2461 35.5181 17.8831 36.7843C17.4903 36.7047 17.119 36.5421 16.7942 36.3073C16.4694 36.0724 16.1986 35.7708 16 35.4227C17.8602 33.3417 19.0787 30.767 19.5083 28.0091Z" fill="white" stroke="#145FAA"/>
<path opacity="0.3" d="M41.0873 22.0297C41.1714 22.2024 41.2149 22.392 41.2146 22.5841C41.2142 22.7761 41.17 22.9656 41.0854 23.138C41.0007 23.3104 40.8778 23.4612 40.726 23.5789C40.5742 23.6966 40.3976 23.7781 40.2095 23.8171L35.1961 25.5293L34.0953 25.9059L34.5907 27.3545L35.1701 29.4229L35.341 30.2066C36.0322 29.5912 36.838 29.1182 37.7122 28.8146C38.4932 28.493 39.3344 28.3436 40.1783 28.3765C41.0223 28.4094 41.8493 28.6238 42.6029 29.0051C43.3565 29.3865 44.019 29.9258 44.5454 30.5863C45.0718 31.2469 45.4496 32.0131 45.6531 32.8328C46.022 33.7083 46.2022 34.6517 46.1819 35.6015C46.1617 36.5513 45.9415 37.4862 45.5357 38.3452C45.13 39.2042 44.5477 39.968 43.8269 40.5868C43.1061 41.2057 42.2629 41.6657 41.3524 41.9368C39.3884 42.6569 37.2326 42.6569 35.2686 41.9368C35.1989 41.0827 35.4062 40.2289 35.8596 39.5018C37.2995 39.9891 38.8578 40.0014 40.3051 39.5366C42.2461 38.8732 43.5701 36.9654 42.5793 34.0684C42.4748 33.5526 42.2572 33.0665 41.9423 32.6449C41.6274 32.2233 41.223 31.8768 40.7581 31.6302C40.2932 31.3836 39.7794 31.2432 39.2538 31.2189C38.7281 31.1947 38.2036 31.2873 37.718 31.49C36.5238 31.9247 35.5173 32.7602 34.8702 33.854C34.2273 33.9165 33.5848 33.731 33.074 33.3354L30.5 24.4748L30.6333 24.2025L40.4557 20.8477C40.7242 21.2078 40.9371 21.6063 41.0873 22.0297Z" fill="white" stroke="#145FAA"/>
</g>
</svg>
