<svg width="51" height="50" viewBox="0 0 51 50" fill="none" xmlns="http://www.w3.org/2000/svg">
<path d="M48.5685 2.43647C47.7967 1.66405 46.8802 1.0513 45.8715 0.633242C44.8627 0.21518 43.7815 0 42.6895 0C41.5976 0 40.5163 0.21518 39.5076 0.633242C38.4988 1.0513 37.5823 1.66405 36.8105 2.43647L6.07251 33.1695C5.85884 33.3843 5.69735 33.6454 5.60051 33.9325L1.09951 47.4255C0.983892 47.7701 0.966709 48.1402 1.04989 48.494C1.13307 48.8479 1.31331 49.1716 1.57036 49.4286C1.82741 49.6857 2.15106 49.8659 2.50493 49.9491C2.85881 50.0323 3.22887 50.0151 3.57351 49.8995L17.0675 45.3995C17.3549 45.3027 17.6163 45.1412 17.8315 44.9275L48.5685 14.1935C50.1255 12.6333 50.9999 10.5191 50.9999 8.31497C50.9999 6.1108 50.1255 3.99666 48.5685 2.43647ZM6.04351 44.9555L8.30651 38.1655L12.8335 42.6915L6.04351 44.9555ZM16.4495 40.7835L10.2165 34.5505L36.3165 8.45047L42.5505 14.6835L16.4495 40.7835ZM45.8055 11.4315L45.3125 11.9245L39.0785 5.69147L39.5715 5.19847C40.401 4.38628 41.5175 3.93413 42.6784 3.94022C43.8394 3.94631 44.951 4.41014 45.772 5.23099C46.593 6.05183 47.057 7.16341 47.0633 8.32434C47.0695 9.48527 46.6176 10.6018 45.8055 11.4315Z" fill="white"/>
</svg>
