<svg width="50" height="50" viewBox="0 0 50 50" fill="none" xmlns="http://www.w3.org/2000/svg">
<path d="M25.0003 30.957C24.6621 30.9572 24.3342 30.8404 24.0723 30.6264C23.8104 30.4123 23.6306 30.1142 23.5634 29.7827C23.4963 29.4512 23.546 29.1067 23.704 28.8076C23.862 28.5085 24.1186 28.2733 24.4303 28.142C24.8132 28.0217 25.2233 28.0194 25.6074 28.1354C25.9915 28.2513 26.3319 28.4801 26.5843 28.792C26.72 28.9361 26.8835 29.0512 27.0649 29.1305C27.2463 29.2097 27.4418 29.2513 27.6398 29.2528C27.8377 29.2544 28.0339 29.2158 28.2165 29.1394C28.3991 29.063 28.5643 28.9504 28.7022 28.8084C28.8401 28.6664 28.9478 28.4979 29.0187 28.3132C29.0897 28.1284 29.1225 27.9311 29.1151 27.7333C29.1077 27.5355 29.0604 27.3413 28.9758 27.1623C28.8913 26.9833 28.7714 26.8233 28.6233 26.692C28.0137 26.0868 27.2764 25.6259 26.4653 25.343V23.633C26.4653 23.2444 26.311 22.8718 26.0363 22.5971C25.7615 22.3223 25.3889 22.168 25.0003 22.168C24.6118 22.168 24.2392 22.3223 23.9644 22.5971C23.6897 22.8718 23.5353 23.2444 23.5353 23.633V25.349C23.4523 25.379 23.3693 25.41 23.2873 25.449C22.3588 25.8483 21.5961 26.5551 21.1274 27.4505C20.6587 28.346 20.5125 29.3755 20.7135 30.366C20.9145 31.3566 21.4504 32.2477 22.2311 32.8896C23.0118 33.5316 23.9896 33.8852 25.0003 33.891C25.3448 33.891 25.6783 34.0124 25.9422 34.2339C26.206 34.4554 26.3834 34.7628 26.4431 35.1021C26.5028 35.4414 26.441 35.7909 26.2686 36.0892C26.0962 36.3874 25.8242 36.6154 25.5003 36.733C25.0439 36.8331 24.5676 36.7887 24.1376 36.6059C23.7075 36.4231 23.345 36.1111 23.1003 35.713C22.8476 35.4255 22.4923 35.2484 22.1106 35.2195C21.7289 35.1907 21.351 35.3124 21.0579 35.5586C20.7648 35.8048 20.5797 36.1559 20.5422 36.5369C20.5047 36.9178 20.6178 37.2984 20.8573 37.597C21.5577 38.4694 22.485 39.132 23.5373 39.512V41.207C23.5373 41.5955 23.6917 41.9681 23.9664 42.2429C24.2412 42.5176 24.6138 42.672 25.0023 42.672C25.3909 42.672 25.7635 42.5176 26.0383 42.2429C26.313 41.9681 26.4673 41.5955 26.4673 41.207V39.495L26.5063 39.482C27.4715 39.1238 28.2804 38.4386 28.7925 37.5456C29.3046 36.6525 29.4873 35.6082 29.3089 34.5944C29.1305 33.5805 28.6023 32.6613 27.8162 31.9967C27.03 31.3321 26.0357 30.9642 25.0063 30.957H25.0003Z" fill="white"/>
<path d="M38.568 21.9996C36.934 19.9498 34.9266 18.2278 32.652 16.9246C33.1295 16.3616 33.4577 15.6875 33.6063 14.9644C33.755 14.2413 33.7193 13.4924 33.5025 12.7868C33.2858 12.0811 32.895 11.4412 32.3661 10.9262C31.8372 10.4112 31.1872 10.0375 30.476 9.83963L34.215 3.31963C34.325 3.12724 34.39 2.91243 34.405 2.69132C34.42 2.47022 34.3847 2.24859 34.3018 2.04309C34.2188 1.8376 34.0903 1.65359 33.926 1.5049C33.7617 1.3562 33.5658 1.2467 33.353 1.18463C27.896 -0.394876 22.103 -0.394876 16.646 1.18463C16.4333 1.2467 16.2374 1.3562 16.0731 1.5049C15.9087 1.65359 15.7803 1.8376 15.6973 2.04309C15.6143 2.24859 15.579 2.47022 15.594 2.69132C15.6091 2.91243 15.674 3.12724 15.784 3.31963L19.523 9.83963C18.8125 10.038 18.1633 10.4118 17.635 10.9267C17.1068 11.4417 16.7165 12.0811 16.5 12.7863C16.2835 13.4915 16.2478 14.2398 16.3962 14.9624C16.5445 15.6851 16.8722 16.3588 17.349 16.9216C15.0745 18.2258 13.0675 19.9488 11.434 21.9996C7.99054 26.1798 6.06049 31.4008 5.95703 36.8156C5.95703 47.4696 14.458 49.9996 25 49.9996C35.542 49.9996 44.043 47.4656 44.043 36.8156C43.9401 31.401 42.0107 26.1801 38.568 21.9996ZM19.287 3.53663C23.053 2.72692 26.9481 2.72692 30.714 3.53663L27.487 9.16163C25.8367 8.93094 24.1623 8.93094 22.512 9.16163L19.287 3.53663ZM20.244 12.6846C22.7342 11.8616 25.3953 11.6993 27.967 12.2136H27.976C28.5778 12.3345 29.1719 12.4911 29.755 12.6826C30.0735 12.7869 30.3467 12.9972 30.5289 13.2785C30.7111 13.5598 30.7913 13.895 30.7562 14.2283C30.7211 14.5616 30.5728 14.8728 30.336 15.11C30.0992 15.3472 29.7883 15.496 29.455 15.5316C26.5592 14.6147 23.4509 14.6147 20.555 15.5316C20.2217 15.4976 19.9102 15.3502 19.6725 15.114C19.4348 14.8778 19.2854 14.5673 19.2492 14.2342C19.2131 13.9011 19.2923 13.5657 19.4738 13.284C19.6552 13.0023 19.9278 12.7914 20.246 12.6866L20.244 12.6846ZM25 47.0846C13.555 47.0846 8.88703 44.0946 8.88703 36.8116C9.00891 32.0727 10.7047 27.5092 13.707 23.8406C16.89 19.9246 20.901 17.7686 25 17.7686C29.512 17.7686 33.459 20.3546 36.293 23.8406C39.2954 27.5092 40.9911 32.0727 41.113 36.8116C41.113 44.0996 36.445 47.0896 25 47.0896V47.0846Z" fill="white"/>
</svg>
