<svg width="30" height="30" viewBox="0 0 30 30" fill="none" xmlns="http://www.w3.org/2000/svg">
<path d="M6.18748 18.0377C5.56875 19.5939 4.59377 21.1314 3.29063 22.6127C2.87813 23.0814 2.82188 23.7564 3.15937 24.2814C3.4219 24.6939 3.85312 24.9189 4.32187 24.9189C4.45312 24.9189 4.58439 24.9095 4.71565 24.8626C7.47185 24.0564 13.9125 21.197 14.0907 12.0282C14.1562 8.49391 11.5688 5.45642 8.20312 5.10954C6.33751 4.92204 4.48128 5.53137 3.10312 6.76888C1.72503 8.01578 0.9375 9.79704 0.9375 11.6533C0.9375 14.747 3.13128 17.4564 6.18748 18.0377Z" fill="#145FAA"/>
<path d="M23.1655 5.10954C21.3092 4.92204 19.453 5.53137 18.0749 6.76888C16.6967 8.01578 15.9092 9.79704 15.9092 11.6533C15.9092 14.747 18.103 17.4564 21.1592 18.0377C20.5404 19.5939 19.5655 21.1314 18.2623 22.6127C17.8498 23.0814 17.7936 23.7564 18.1311 24.2814C18.3936 24.6939 18.8249 24.9189 19.2936 24.9189C19.4248 24.9189 19.5561 24.9095 19.6873 24.8626C22.4436 24.0564 28.8842 21.197 29.0623 12.0282V11.897C29.0623 8.41889 26.503 5.45642 23.1655 5.10954Z" fill="#145FAA"/>
</svg>
