<svg width="74" height="45" viewBox="0 0 74 45" fill="none" xmlns="http://www.w3.org/2000/svg">
<path opacity="0.3" d="M62.7896 8.22972C54.4108 12.3389 45.9938 16.2035 37.9942 21.1279C37.262 20.2446 36.2174 20.2476 35.193 20.0898C31.9092 19.5842 28.6457 18.9447 25.3567 18.4802C22.6994 18.1048 20.0181 17.8968 17.3458 17.6358C12.6195 17.1728 7.89095 16.739 3.16612 16.2626C2.18893 16.1639 1.24621 15.8759 0 15.2499C0.708162 14.9956 1.06112 14.8909 1.39684 14.745C4.97587 13.1968 8.59686 11.7376 12.1182 10.0682C18.6902 6.95224 25.2218 3.7503 31.7212 0.48703C32.7515 -0.0305451 33.6658 -0.05374 34.7172 0.04798C36.7128 0.240949 38.7151 0.398028 40.7174 0.490025C47.6776 0.809396 54.6409 1.08014 61.6011 1.39877C64.8706 1.54835 68.1372 1.75553 71.4037 1.95972C71.9657 1.99487 72.5203 2.14595 73.3333 2.28881C71.8848 3.82657 70.2257 4.58651 68.6482 5.43692C67.0798 6.28209 65.4499 7.0143 63.8635 7.78767C64.8279 12.674 65.8403 17.4443 66.6953 22.2431C67.5534 27.0569 68.2541 31.8983 69.0357 36.8033C70.0908 37.0561 70.4602 37.6836 70.6094 38.7771C70.7435 39.7607 71.5416 40.6425 71.9777 41.5999C72.3524 42.4226 72.814 43.249 72.4805 44.2797C71.7252 42.8287 70.9706 41.3777 70.2152 39.9267C70.09 39.9738 69.9656 40.0202 69.8405 40.0673C70.1028 41.4742 70.3643 42.8811 70.6266 44.288C69.4463 42.9738 69.2013 41.3441 68.9435 39.7659C68.1282 39.6462 67.9723 40.1885 67.9431 40.6088C67.8891 41.3882 67.9625 42.181 68.0292 42.9641C68.0869 43.6387 68.2076 44.3074 68.1731 45C67.2072 43.4368 66.6459 41.8048 67.2836 39.9476C67.3953 39.6238 67.6328 39.166 67.5047 38.9656C66.801 37.8669 67.6021 37.4593 68.4159 36.9439C66.2442 27.5199 65.9122 17.7241 62.7896 8.22972ZM2.68877 15.2604C3.18411 15.4227 3.55655 15.6164 3.94697 15.6605C5.93807 15.8879 7.93216 16.0973 9.9285 16.2761C15.2378 16.7518 20.5659 17.0741 25.8543 17.7166C29.7713 18.193 33.6456 19.0367 37.5198 19.8131C38.2565 19.9604 38.7211 19.7368 39.2674 19.4159C46.3243 15.2671 53.7041 11.7436 61.075 8.2013C64.1654 6.71664 67.2192 5.15568 70.2811 3.61268C70.6206 3.4414 70.9031 3.15867 71.4104 2.77946C70.3516 2.64558 69.5737 2.49152 68.7914 2.45786C62.247 2.17813 55.6997 1.95223 49.1569 1.64707C44.2522 1.41895 39.3528 1.0839 34.4496 0.834085C33.6793 0.795192 32.8347 0.793682 32.1356 1.06219C30.9118 1.5319 29.781 2.23796 28.6 2.82285C23.3064 5.44588 18.0255 8.09659 12.7064 10.6665C9.44141 12.2447 6.11492 13.6949 2.68877 15.2604ZM69.8143 37.8452C68.8753 37.8153 68.8753 37.8153 68.2009 38.4009C68.951 39.1085 69.3167 38.6178 69.8143 37.8452Z" fill="#2EA3DD"/>
<path opacity="0.3" d="M18.9998 34.2049C19.0569 33.6533 19.2075 33.1295 19.1466 32.6341C18.8307 30.0588 18.457 27.4919 18.1107 24.9204C17.909 23.4211 17.7184 21.9196 17.5256 20.4197C17.4225 19.6135 17.6124 19.3297 18.4347 19.295C19.1622 19.2643 19.9053 19.2858 20.6231 19.4027C23.4054 19.8558 26.1737 20.4012 28.9597 20.8258C31.1777 21.1635 33.4135 21.3781 35.6419 21.6427C35.9015 21.6735 36.1914 21.6104 36.4198 21.7096C38.1766 22.4727 39.6464 21.8835 41.2563 21.0112C46.7639 18.0266 52.356 15.2097 57.9162 12.3298C57.9629 12.3059 58.0134 12.2882 58.0601 12.2651C60.0319 11.2944 60.2774 11.3613 60.878 13.5413C61.6656 16.3982 62.3693 19.2804 63.0671 22.1619C63.2228 22.8065 63.205 23.4958 63.2673 24.165C63.1442 24.1881 63.0211 24.2119 62.898 24.235C61.8806 20.3589 60.8632 16.4828 59.7827 12.3674C58.4894 13.0059 57.3779 13.5359 56.2818 14.099C51.65 16.4789 46.97 18.7681 42.4168 21.3004C40.4161 22.4127 38.4413 22.8004 36.2641 22.5043C32.85 22.0396 29.4328 21.5958 26.0239 21.0981C24.1159 20.8196 22.2234 20.4258 20.3168 20.1358C19.7132 20.0443 19.0851 20.1212 18.345 20.1212C18.7321 23.2019 19.1251 26.1419 19.4603 29.0895C19.5886 30.2172 19.6583 31.3634 19.6168 32.4956C19.5834 33.4018 19.8155 33.9272 20.7099 34.1364C22.236 34.4926 23.7332 34.9956 25.2697 35.2833C29.5708 36.0902 33.8844 35.9279 38.2285 35.5441C42.4198 35.1741 46.5043 34.3826 50.4843 33.038C54.4264 31.7064 58.224 30.0495 61.2711 26.9734C61.6804 26.5603 62.175 26.238 62.6385 25.885C62.7527 25.798 62.8988 25.7557 63.3333 25.5481C63.0352 26.0396 62.9188 26.2934 62.7497 26.4996C60.9952 28.6411 58.8402 30.2703 56.4131 31.4564C51.4661 33.8733 46.273 35.3741 40.821 36.061C37.2274 36.5133 33.6434 36.7425 30.0387 36.6441C26.3613 36.5433 22.7981 35.7641 19.3454 34.448C19.2082 34.3957 19.0947 34.2733 18.9998 34.2049Z" fill="#2EA3DD"/>
<path opacity="0.3" d="M62.7896 8.22972C54.4108 12.3389 45.9938 16.2035 37.9942 21.1279C37.262 20.2446 36.2174 20.2476 35.193 20.0898C31.9092 19.5842 28.6457 18.9447 25.3567 18.4802C22.6994 18.1048 20.0181 17.8968 17.3458 17.6358C12.6195 17.1728 7.89095 16.739 3.16612 16.2626C2.18893 16.1639 1.24621 15.8759 0 15.2499C0.708162 14.9956 1.06112 14.8909 1.39684 14.745C4.97587 13.1968 8.59686 11.7376 12.1182 10.0682C18.6902 6.95224 25.2218 3.7503 31.7212 0.48703C32.7515 -0.0305451 33.6658 -0.05374 34.7172 0.04798C36.7128 0.240949 38.7151 0.398028 40.7174 0.490025C47.6776 0.809396 54.6409 1.08014 61.6011 1.39877C64.8706 1.54835 68.1372 1.75553 71.4037 1.95972C71.9657 1.99487 72.5203 2.14595 73.3333 2.28881C71.8848 3.82657 70.2257 4.58651 68.6482 5.43692C67.0798 6.28209 65.4499 7.0143 63.8635 7.78767C64.8279 12.674 65.8403 17.4443 66.6953 22.2431C67.5534 27.0569 68.2541 31.8983 69.0357 36.8033C70.0908 37.0561 70.4602 37.6836 70.6094 38.7771C70.7435 39.7607 71.5416 40.6425 71.9777 41.5999C72.3524 42.4226 72.814 43.249 72.4805 44.2797C71.7252 42.8287 70.9706 41.3777 70.2152 39.9267C70.09 39.9738 69.9656 40.0202 69.8405 40.0673C70.1028 41.4742 70.3643 42.8811 70.6266 44.288C69.4463 42.9738 69.2013 41.3441 68.9435 39.7659C68.1282 39.6462 67.9723 40.1885 67.9431 40.6088C67.8891 41.3882 67.9625 42.181 68.0292 42.9641C68.0869 43.6387 68.2076 44.3074 68.1731 45C67.2072 43.4368 66.6459 41.8048 67.2836 39.9476C67.3953 39.6238 67.6328 39.166 67.5047 38.9656C66.801 37.8669 67.6021 37.4593 68.4159 36.9439C66.2442 27.5199 65.9122 17.7241 62.7896 8.22972ZM2.68877 15.2604C3.18411 15.4227 3.55655 15.6164 3.94697 15.6605C5.93807 15.8879 7.93216 16.0973 9.9285 16.2761C15.2378 16.7518 20.5659 17.0741 25.8543 17.7166C29.7713 18.193 33.6456 19.0367 37.5198 19.8131C38.2565 19.9604 38.7211 19.7368 39.2674 19.4159C46.3243 15.2671 53.7041 11.7436 61.075 8.2013C64.1654 6.71664 67.2192 5.15568 70.2811 3.61268C70.6206 3.4414 70.9031 3.15867 71.4104 2.77946C70.3516 2.64558 69.5737 2.49152 68.7914 2.45786C62.247 2.17813 55.6997 1.95223 49.1569 1.64707C44.2522 1.41895 39.3528 1.0839 34.4496 0.834085C33.6793 0.795192 32.8347 0.793682 32.1356 1.06219C30.9118 1.5319 29.781 2.23796 28.6 2.82285C23.3064 5.44588 18.0255 8.09659 12.7064 10.6665C9.44141 12.2447 6.11492 13.6949 2.68877 15.2604ZM69.8143 37.8452C68.8753 37.8153 68.8753 37.8153 68.2009 38.4009C68.951 39.1085 69.3167 38.6178 69.8143 37.8452Z" fill="#2EA3DD"/>
<path opacity="0.3" d="M18.9998 34.2049C19.0569 33.6533 19.2075 33.1295 19.1466 32.6341C18.8307 30.0588 18.457 27.4919 18.1107 24.9204C17.909 23.4211 17.7184 21.9196 17.5256 20.4197C17.4225 19.6135 17.6124 19.3297 18.4347 19.295C19.1622 19.2643 19.9053 19.2858 20.6231 19.4027C23.4054 19.8558 26.1737 20.4012 28.9597 20.8258C31.1777 21.1635 33.4135 21.3781 35.6419 21.6427C35.9015 21.6735 36.1914 21.6104 36.4198 21.7096C38.1766 22.4727 39.6464 21.8835 41.2563 21.0112C46.7639 18.0266 52.356 15.2097 57.9162 12.3298C57.9629 12.3059 58.0134 12.2882 58.0601 12.2651C60.0319 11.2944 60.2774 11.3613 60.878 13.5413C61.6656 16.3982 62.3693 19.2804 63.0671 22.1619C63.2228 22.8065 63.205 23.4958 63.2673 24.165C63.1442 24.1881 63.0211 24.2119 62.898 24.235C61.8806 20.3589 60.8632 16.4828 59.7827 12.3674C58.4894 13.0059 57.3779 13.5359 56.2818 14.099C51.65 16.4789 46.97 18.7681 42.4168 21.3004C40.4161 22.4127 38.4413 22.8004 36.2641 22.5043C32.85 22.0396 29.4328 21.5958 26.0239 21.0981C24.1159 20.8196 22.2234 20.4258 20.3168 20.1358C19.7132 20.0443 19.0851 20.1212 18.345 20.1212C18.7321 23.2019 19.1251 26.1419 19.4603 29.0895C19.5886 30.2172 19.6583 31.3634 19.6168 32.4956C19.5834 33.4018 19.8155 33.9272 20.7099 34.1364C22.236 34.4926 23.7332 34.9956 25.2697 35.2833C29.5708 36.0902 33.8844 35.9279 38.2285 35.5441C42.4198 35.1741 46.5043 34.3826 50.4843 33.038C54.4264 31.7064 58.224 30.0495 61.2711 26.9734C61.6804 26.5603 62.175 26.238 62.6385 25.885C62.7527 25.798 62.8988 25.7557 63.3333 25.5481C63.0352 26.0396 62.9188 26.2934 62.7497 26.4996C60.9952 28.6411 58.8402 30.2703 56.4131 31.4564C51.4661 33.8733 46.273 35.3741 40.821 36.061C37.2274 36.5133 33.6434 36.7425 30.0387 36.6441C26.3613 36.5433 22.7981 35.7641 19.3454 34.448C19.2082 34.3957 19.0947 34.2733 18.9998 34.2049Z" fill="#2EA3DD"/>
</svg>
