<svg width="58" height="56" viewBox="0 0 58 56" fill="none" xmlns="http://www.w3.org/2000/svg">
<g opacity="0.3">
<path d="M50.6747 9.11144C51.0851 9.43464 51.596 9.68619 51.8912 10.0935C53.9651 12.9509 55.6114 16.0216 56.3824 19.5044C56.8777 21.7426 57.4883 23.9629 57.8388 26.223C58.3076 29.2517 57.6822 32.2243 56.884 35.1331C55.6145 39.7591 53.2813 43.7582 50.012 47.3196C46.6336 50.9994 42.3674 52.9027 37.7429 54.1924C34.7968 55.014 31.8086 55.725 28.6926 55.6503C22.1119 55.4922 16.0287 53.8528 10.7416 49.779C7.8063 47.5174 5.32896 44.9061 3.63899 41.5145C2.06662 38.3588 0.68269 35.1681 0.193611 31.6722C-0.140489 29.2805 -0.000300872 26.8616 0.297196 24.4614C1.01602 18.6602 3.10553 13.3792 6.92549 8.97282C9.7338 5.73383 13.141 3.19187 17.3371 1.76201C21.7933 0.243377 26.3703 -0.0728115 30.9807 0.0128552C33.8147 0.0658128 36.6316 0.63978 39.3449 1.55174C39.735 1.68258 40.0715 1.97229 40.4329 2.18879L40.4749 2.15219C39.633 2.01901 38.7912 1.88584 37.9766 1.75656C37.3037 2.54548 37.2172 3.44108 37.2912 4.30086C37.4361 5.9846 37.623 7.67302 37.9501 9.32872C38.1728 10.4572 38.3971 11.5732 37.4493 12.38C36.4883 13.1977 35.3988 12.7702 34.3583 12.3247C32.9199 11.7095 31.7127 12.3753 31.6123 13.9423C31.5033 15.6447 30.6902 16.8004 29.311 17.689C28.2526 18.3705 27.1903 19.0628 26.22 19.8603C25.618 20.3548 24.6725 20.963 25.1133 21.8384C25.389 22.3867 26.2947 22.6896 26.9762 22.9482C28.4629 23.512 29.892 22.882 31.2938 22.5058C32.7649 22.1118 34.1052 22.2761 35.4097 22.9887C35.6955 23.1444 36.0179 23.3025 36.2111 23.5478C37.4992 25.1802 39.3083 26.1248 40.9827 27.2541C42.467 28.2548 43.5316 29.5025 43.2637 31.4743C43.1975 31.9595 43.2123 32.4626 43.2458 32.9533C43.3502 34.4735 44.1874 35.1199 45.6741 34.7795C46.3641 34.6214 47.0261 34.3364 47.6951 34.0934C50.2316 33.1744 54.1567 34.528 54.9752 37.1579C54.7517 36.9313 54.5297 36.7039 54.3046 36.4788C52.434 34.6074 50.0026 33.2811 47.0666 34.852C46.5027 35.1533 45.826 35.299 45.1835 35.387C43.7832 35.5786 42.8479 34.7951 42.7373 33.398C42.6983 32.9065 42.6539 32.3964 42.7427 31.9183C43.0978 29.9931 41.9499 28.8257 40.6696 27.7432C40.2148 27.3592 39.6167 27.149 39.133 26.7931C38.1261 26.0509 37.1572 25.2573 36.162 24.4995C35.7336 24.174 35.3022 23.8391 34.8287 23.5891C33.444 22.8586 32.0399 22.8602 30.5376 23.3454C29.1287 23.8002 27.6475 23.9847 26.1608 23.5564C24.2543 23.0074 23.8081 21.5884 25.1172 20.1212C25.4793 19.7154 25.8991 19.3556 26.3228 19.0106C27.0026 18.4577 27.7238 17.9546 28.399 17.3954C29.6708 16.3417 30.7416 15.2888 30.8514 13.373C30.9636 11.4089 32.8584 10.6527 34.6309 11.5779C34.8248 11.6791 35.0016 11.8162 35.2025 11.8979C36.7281 12.5179 37.5887 11.8824 37.3613 10.2703C37.2546 9.51252 36.9953 8.77734 36.8839 8.02036C36.5747 5.92464 35.933 3.79855 37.2842 1.80251C37.3216 1.748 37.2344 1.60937 37.1674 1.38197C32.2595 -0.0728113 27.2199 0.557228 22.1936 0.867186C21.9802 0.880426 21.7419 0.793201 21.5534 0.859398C20.9436 1.07434 20.3526 1.33991 19.6782 1.61638C19.8433 1.92478 19.9655 2.15764 20.0917 2.38816C21.1866 4.39042 20.8938 5.60767 18.9336 6.75015C16.9454 7.90821 15.4003 9.53354 14.0319 11.3248C12.7711 12.9758 12.0039 14.8262 12.2454 16.9873C12.324 17.6929 12.2127 18.4187 12.2781 19.1267C12.4074 20.5176 11.7586 21.396 10.0305 21.9163C9.2042 22.1647 8.29692 22.1359 7.42935 22.2597C5.23939 22.572 3.16237 23.2036 1.3805 24.5719C1.15621 24.7441 0.954506 25.1054 0.952169 25.3819C0.931142 27.3 0.740334 29.2525 1.02537 31.1301C1.79326 36.186 3.64833 40.8362 6.83046 44.903C10.7766 49.9464 15.9197 53.025 22.1765 54.3014C25.8165 55.0436 29.4496 55.0498 33.1294 54.5249C36.3068 54.0717 39.3908 53.2695 42.27 51.9448C48.1413 49.2424 52.2556 44.7254 54.8607 38.8409C55.0787 38.3487 54.909 37.6852 54.9199 37.1011C55.4167 37.1128 55.6901 36.908 55.8606 36.4017C57.1316 32.6207 57.6698 28.8148 56.9977 24.8064C56.0888 19.3922 54.5001 14.3083 51.0298 9.9463C50.8476 9.71734 50.8102 9.37389 50.7058 9.0834L50.6747 9.11144ZM1.32597 23.7768C1.4864 23.7581 1.66552 23.7846 1.79169 23.7153C4.12649 22.4279 6.60771 21.685 9.26805 21.3774C11.4128 21.1289 11.923 20.0963 11.6605 17.9421C11.4175 15.943 11.4214 13.9236 12.7866 12.1838C13.3918 11.4128 13.8528 10.5304 14.4236 9.7298C15.5108 8.20493 16.718 6.83426 18.5411 6.10532C20.0597 5.49786 20.3658 4.33435 19.506 2.91384C19.3098 2.58987 19.0683 2.29393 18.8565 1.99799C8.8335 4.83356 1.80804 15.1891 1.32597 23.7768Z" fill="black"/>
<path d="M40.4336 2.19085C40.8059 2.26718 41.2147 2.26873 41.5442 2.4315C43.3572 3.32633 45.1639 4.23673 46.9404 5.20165C47.269 5.37999 47.4482 5.83169 47.6966 6.15722L47.7309 6.11984C46.2465 5.32859 44.7574 4.54669 43.28 3.74298C42.3362 3.22976 41.4094 2.68538 40.4757 2.15503L40.4336 2.19085Z" fill="black"/>
<path d="M47.6973 6.15677C49.1886 6.63884 50.0694 7.73693 50.6753 9.11149L50.7026 9.08657C49.712 8.09751 48.7214 7.10845 47.7315 6.11938L47.6973 6.15677Z" fill="black"/>
<path d="M16.7552 30.4976C15.4344 32.0202 14.2273 33.6665 12.7476 35.0138C11.9509 35.7397 10.7017 35.992 9.63009 36.386C8.19634 36.9141 7.62006 37.7738 7.82177 39.2761C7.93858 40.1499 8.35601 40.8508 9.19632 41.1764C10.0592 41.5105 10.954 41.7644 11.8403 42.0377C13.2522 42.4723 14.6946 42.8243 16.0777 43.3352C18.3338 44.1685 19.7606 46.0329 21.3065 47.74C21.9303 48.4285 22.5712 49.1091 23.2667 49.7236C24.1747 50.525 25.2744 50.8139 26.4823 50.6901C27.8101 50.5538 28.4698 49.9377 28.6372 48.6333C28.6785 48.3085 28.68 47.9721 28.6466 47.6458C28.4386 45.589 28.7167 43.6272 29.5243 41.7028C29.8288 40.9762 29.8155 40.0985 29.856 39.2855C29.8895 38.6181 29.4619 38.3011 28.8 38.3174C28.6356 38.3213 28.4721 38.3525 28.3078 38.3556C26.5726 38.3852 26.1568 38.0363 25.9629 36.3713C25.7682 34.6953 25.7043 32.9921 25.3624 31.3473C24.9146 29.19 22.8889 28.0756 20.7527 28.6293C20.2761 28.7531 19.8104 28.9182 19.34 29.0647C19.5051 28.8809 19.6445 28.5771 19.84 28.5343C20.5853 28.3708 21.3532 28.1776 22.1063 28.2018C24.4209 28.2773 25.6521 29.3279 26.0516 31.6121C26.3148 33.1175 26.3912 34.6548 26.5789 36.1742C26.7549 37.6033 26.8881 37.7045 28.3156 37.7053C30.0585 37.7061 30.8178 38.555 30.5974 40.2878C30.5421 40.7208 30.4985 41.1849 30.3108 41.5673C29.2844 43.6592 29.1917 45.9005 29.2626 48.1481C29.3077 49.5912 28.7774 50.6418 27.4823 51.1861C26.2128 51.7196 24.8679 51.7344 23.7487 50.824C22.6047 49.8941 21.435 48.937 20.5191 47.7969C18.4171 45.1809 15.7062 43.7082 12.4789 43.1054C11.0568 42.8399 9.71419 42.4474 8.49305 41.6499C7.26412 40.8469 7.02192 39.639 7.15276 38.3361C7.28126 37.0535 7.83109 35.8923 9.25549 35.7389C11.6954 35.4756 12.9898 33.6432 14.5863 32.1845C15.2607 31.5685 16.0294 31.056 16.7552 30.4976Z" fill="black"/>
<path d="M33.3361 48.8047C34.8524 48.4987 35.8344 47.5696 36.0688 46.1273C36.1997 45.3236 35.9676 44.3509 34.7971 44.1125C33.6912 45.1561 33.3485 46.5626 33.0409 48.392C32.7613 47.7869 32.5947 47.5758 32.5705 47.3492C32.4397 46.1273 32.9124 45.0557 33.6787 44.1865C34.0167 43.8034 34.7192 43.5674 35.2535 43.5728C35.9629 43.5799 36.3694 44.1748 36.5649 44.8641C37.163 46.966 35.7526 48.7635 33.3361 48.8047Z" fill="black"/>
<path d="M18.7174 29.0227C18.3623 29.9557 17.5173 30.2415 16.6934 30.5538C17.3678 30.0437 18.0422 29.5328 18.7174 29.0227Z" fill="black"/>
</g>
</svg>
