<svg width="20" height="20" viewBox="0 0 20 20" fill="none" xmlns="http://www.w3.org/2000/svg">
<path d="M3.05944 2.36047C3.05891 2.36047 3.0583 2.36047 3.05776 2.36047C2.8686 2.36047 2.69069 2.43421 2.55634 2.56822C2.42052 2.70371 2.3457 2.88411 2.3457 3.07617V13.8078C2.3457 14.2014 2.66712 14.5223 3.06227 14.5233C4.72814 14.5273 7.51913 14.8745 9.44452 16.8894V5.65839C9.44452 5.52499 9.41045 5.39967 9.34614 5.29597C7.76586 2.75105 4.72908 2.36438 3.05944 2.36047Z" fill="#145FAA"/>
<path d="M17.6534 13.8078V3.07604C17.6534 2.88399 17.5786 2.70358 17.4428 2.5681C17.3084 2.43409 17.1304 2.36035 16.9414 2.36035C16.9408 2.36035 16.9402 2.36035 16.9397 2.36035C15.2701 2.36432 12.2333 2.75099 10.653 5.29592C10.5887 5.39962 10.5547 5.52494 10.5547 5.65834V16.8893C12.4801 14.8744 15.2711 14.5272 16.9369 14.5232C17.332 14.5222 17.6534 14.2013 17.6534 13.8078Z" fill="#145FAA"/>
<path d="M19.2837 4.83533H18.7648V13.8078C18.7648 14.8126 17.9461 15.6319 16.9398 15.6344C15.5268 15.6378 13.1969 15.9141 11.5469 17.4758C14.4006 16.7771 17.409 17.2313 19.1235 17.622C19.3376 17.6707 19.5588 17.6204 19.7303 17.4837C19.9012 17.3473 19.9992 17.1435 19.9992 16.9247V5.55089C19.9993 5.15634 19.6782 4.83533 19.2837 4.83533Z" fill="#145FAA"/>
<path d="M1.23448 13.8078V4.83533H0.715558C0.321079 4.83533 0 5.15634 0 5.55089V16.9245C0 17.1433 0.0980475 17.3471 0.268957 17.4835C0.440338 17.6201 0.661349 17.6707 0.87576 17.6218C2.59024 17.231 5.59867 16.7768 8.45228 17.4756C6.80231 15.914 4.47247 15.6377 3.05947 15.6344C2.05321 15.6319 1.23448 14.8126 1.23448 13.8078Z" fill="#145FAA"/>
</svg>
