<svg width="20" height="20" viewBox="0 0 20 20" fill="none" xmlns="http://www.w3.org/2000/svg">
<g clip-path="url(#clip0_95:6516)">
<path d="M9.99996 5.00028C11.3806 5.00028 12.4999 3.88101 12.4999 2.50032C12.4999 1.11963 11.3806 0.000366211 9.99996 0.000366211C8.61927 0.000366211 7.5 1.11963 7.5 2.50032C7.5 3.88101 8.61927 5.00028 9.99996 5.00028Z" fill="#145FAA"/>
<path d="M13.7448 11.7951L13.1773 7.37522C13.1136 6.73399 12.5786 6.25024 11.9348 6.25024H11.2499C11.0836 6.25024 10.9249 6.31649 10.8074 6.43274L9.99988 7.24023L9.19239 6.43274C9.07489 6.31649 8.91615 6.25024 8.7499 6.25024H8.06616C7.42117 6.25024 6.88618 6.73399 6.82368 7.35897L6.25494 11.7964C6.23244 11.9739 6.28744 12.1539 6.40619 12.2876C6.52494 12.4226 6.69493 12.5001 6.87493 12.5001H7.54992L8.07241 18.875C8.13491 19.515 8.67115 20 9.31614 20H10.6849C11.3299 20 11.8648 19.515 11.9298 18.8638L12.4511 12.5001H13.1248C13.3048 12.5001 13.4748 12.4226 13.5936 12.2876C13.7136 12.1539 13.7686 11.9739 13.7448 11.7951Z" fill="#145FAA"/>
<path d="M16.25 5.00028C17.6306 5.00028 18.7499 3.88101 18.7499 2.50032C18.7499 1.11963 17.6306 0.000366211 16.25 0.000366211C14.8693 0.000366211 13.75 1.11963 13.75 2.50032C13.75 3.88101 14.8693 5.00028 16.25 5.00028Z" fill="#145FAA"/>
<path d="M3.74995 0.000366211C2.37123 0.000366211 1.25 1.1216 1.25 2.50032C1.25 3.87905 2.37123 5.00028 3.74995 5.00028C5.12743 5.00028 6.2499 3.87905 6.2499 2.50032C6.2499 1.1216 5.12743 0.000366211 3.74995 0.000366211Z" fill="#145FAA"/>
<path d="M19.9943 11.7951L19.4268 7.37647C19.3631 6.73399 18.8294 6.25024 18.1844 6.25024H17.4994C17.3331 6.25024 17.1744 6.31649 17.0569 6.43274L16.2494 7.24023L15.4419 6.43274C15.3244 6.31649 15.1657 6.25024 15.0007 6.25024H14.3157C14.2382 6.25024 14.1682 6.27774 14.0944 6.29149C14.2557 6.57649 14.3819 6.88523 14.4194 7.23148L14.9857 11.6364C15.0557 12.1726 14.8882 12.7126 14.5282 13.1189C14.3582 13.3139 14.1407 13.4514 13.9082 13.5589L14.3232 17.625C14.3869 18.2663 14.9219 18.75 15.5669 18.75H16.9356C17.5806 18.75 18.1156 18.265 18.1806 17.6138L18.7006 12.5001H19.3743C19.5543 12.5001 19.7243 12.4226 19.8431 12.2876C19.9631 12.1539 20.0181 11.9739 19.9943 11.7951Z" fill="#145FAA"/>
<path d="M5.46739 13.1126C5.11239 12.7114 4.94739 12.1726 5.01489 11.6389L5.58363 7.20023C5.61613 6.86773 5.73863 6.56774 5.89488 6.29024C5.82488 6.27774 5.75863 6.25024 5.68488 6.25024H4.99989C4.83365 6.25024 4.6749 6.31649 4.5574 6.43274L3.74992 7.24023L2.94243 6.43274C2.82493 6.31649 2.66618 6.25024 2.50119 6.25024H1.81616C1.17117 6.25024 0.636181 6.73399 0.573682 7.35897L0.004942 11.7964C-0.0175576 11.9739 0.0374414 12.1539 0.156189 12.2876C0.274937 12.4226 0.446184 12.5001 0.624931 12.5001H1.29992L1.82241 17.625C1.88491 18.265 2.42115 18.75 3.06614 18.75H4.43486C5.07985 18.75 5.61484 18.265 5.67984 17.6138L6.09484 13.5576C5.86113 13.4489 5.64238 13.3101 5.46739 13.1126Z" fill="#145FAA"/>
</g>
<defs>
<clipPath id="clip0_95:6516">
<rect width="20" height="20" fill="white"/>
</clipPath>
</defs>
</svg>
