<svg width="72" height="39" viewBox="0 0 72 39" fill="none" xmlns="http://www.w3.org/2000/svg">
<g opacity="0.2">
<path d="M17.4941 23.4775C18.2558 26.6519 19.8555 29.5636 22.1264 31.9087C24.3973 34.2539 27.256 35.9464 30.4043 36.8097C33.5525 37.673 36.8747 37.6754 40.0242 36.8166C43.1737 35.9579 46.0349 34.2694 48.3091 31.9275C48.5625 31.6662 48.8068 31.3995 49.0421 31.1275" stroke="#145FAA" stroke-width="2" stroke-linecap="round" stroke-linejoin="round"/>
<path d="M52.4072 25.3456C53.2731 22.9112 53.6117 20.3205 53.4006 17.7452C53.1895 15.17 52.4335 12.669 51.1827 10.408C49.9319 8.14706 48.215 6.17772 46.1455 4.63051C44.0761 3.08331 41.7015 1.99357 39.179 1.43351C36.6566 0.873446 34.0439 0.855855 31.5141 1.3819C28.9844 1.90794 26.5953 2.96561 24.5052 4.48481C22.4151 6.00402 20.6718 7.95006 19.3907 10.194C18.1096 12.4379 17.32 14.9285 17.0742 17.5006" stroke="#145FAA" stroke-width="2" stroke-linecap="round" stroke-linejoin="round"/>
<path d="M20.2399 8.84562C19.2037 10.337 18.3983 11.9761 17.8508 13.7076C14.6088 13.5966 12.5889 13.9076 12.4209 14.6836C12.2529 15.4596 13.9948 16.6016 17.0468 17.8616C17.5368 18.0616 18.0568 18.2696 18.6118 18.4766C23.9793 20.3883 29.4711 21.9312 35.0488 23.0946C40.0348 24.1776 44.7008 24.9576 48.5748 25.4016C49.9082 25.5536 51.1362 25.665 52.2588 25.7356C56.3348 25.9966 58.9349 25.7206 59.1279 24.8356C59.3209 23.9506 57.1068 22.6356 53.3468 21.1986C53.5414 19.4029 53.4693 17.5883 53.1329 15.8136C64.0929 19.6276 71.1988 24.0896 70.4998 27.3066C69.7928 30.5576 61.2999 31.6536 49.5459 30.5156C48.5989 30.4246 47.6349 30.3206 46.6459 30.1986C42.6739 29.7126 38.4018 28.9926 33.9748 28.0306C28.6462 26.8868 23.3916 25.4218 18.2399 23.6436C17.9799 23.5526 17.7268 23.4626 17.4718 23.3706C7.04985 19.6326 0.371828 15.3346 1.04683 12.2116C1.71983 9.12562 9.41185 7.97862 20.2399 8.84562Z" stroke="#145FAA" stroke-width="2" stroke-linecap="round" stroke-linejoin="round"/>
</g>
</svg>
