<svg width="16" height="16" viewBox="0 0 16 16" fill="none" xmlns="http://www.w3.org/2000/svg">
<path d="M6.66667 3.36645V1.99978C6.66687 1.87299 6.63092 1.74877 6.56302 1.6417C6.49513 1.53462 6.39811 1.44912 6.28334 1.39524C6.16857 1.34135 6.04081 1.32131 5.91506 1.33747C5.7893 1.35362 5.67076 1.4053 5.57334 1.48645L1.57334 4.81978C1.49784 4.88234 1.43707 4.96078 1.39537 5.04951C1.35366 5.13824 1.33203 5.23507 1.33203 5.33312C1.33203 5.43116 1.35366 5.528 1.39537 5.61673C1.43707 5.70546 1.49784 5.78389 1.57334 5.84645L5.57334 9.17978C5.69328 9.27917 5.84423 9.33342 6 9.33312C6.09658 9.33363 6.19212 9.31316 6.28 9.27312C6.39572 9.21956 6.49366 9.13394 6.56219 9.02642C6.63072 8.91889 6.66698 8.79396 6.66667 8.66645V7.36645C7.97196 7.49419 9.2146 7.98815 10.2514 8.79139C11.2882 9.59463 12.0769 10.6745 12.5267 11.9065L13.3733 14.2264C13.4199 14.3553 13.5051 14.4667 13.6172 14.5454C13.7293 14.6241 13.863 14.6664 14 14.6664C14.0375 14.6733 14.0759 14.6733 14.1133 14.6664C14.2699 14.6395 14.4116 14.5575 14.5131 14.4353C14.6145 14.313 14.669 14.1586 14.6667 13.9998V11.9998C14.6647 9.81797 13.84 7.71715 12.357 6.11679C10.874 4.51643 8.84202 3.53428 6.66667 3.36645Z" fill="#145FAA"/>
</svg>
