<svg width="16" height="16" viewBox="0 0 16 16" fill="none" xmlns="http://www.w3.org/2000/svg">
<g clip-path="url(#clip0_75:13523)">
<path d="M14.494 1.50688C12.4835 -0.503617 9.21239 -0.503586 7.20189 1.50691C5.82861 2.8802 5.35161 4.90398 5.94623 6.74007L0.139297 12.547C0.0513906 12.6349 0.00195312 12.7539 0.00195312 12.8785V15.5303C0.00195312 15.7894 0.211609 15.999 0.470703 15.999H3.12252C3.24702 15.999 3.36605 15.9496 3.45392 15.8617L4.11677 15.1984C4.21792 15.0972 4.26736 14.9553 4.25089 14.8129L4.16848 14.1007L5.15542 14.0077C5.37973 13.9867 5.55689 13.8095 5.57795 13.5852L5.67089 12.5983L6.38317 12.6811C6.51545 12.6989 6.64867 12.6545 6.74892 12.5658C6.8487 12.4765 6.90592 12.3492 6.90592 12.2156V11.3428H7.76286C7.88736 11.3428 8.00639 11.2934 8.09426 11.2054L9.29636 10.0193C11.132 10.6144 13.1208 10.1733 14.494 8.79907C16.5045 6.7886 16.5045 3.51738 14.494 1.50688ZM13.168 4.82157C12.6195 5.36998 11.7278 5.36998 11.1794 4.82157C10.631 4.27316 10.631 3.38145 11.1794 2.83304C11.7278 2.28463 12.6195 2.28463 13.168 2.83304C13.7164 3.38145 13.7163 4.27316 13.168 4.82157Z" fill="#145FAA"/>
</g>
<defs>
<clipPath id="clip0_75:13523">
<rect width="16" height="16" fill="white"/>
</clipPath>
</defs>
</svg>
