<svg width="16" height="16" viewBox="0 0 16 16" fill="none" xmlns="http://www.w3.org/2000/svg">
<path d="M14.5486 0.0100097C14.532 0.008667 14.5179 0 14.5006 0H7.33398C6.23132 0 5.33398 0.897339 5.33398 2V2.66663C5.33398 3.03467 5.63257 3.33337 6.00061 3.33337C6.36865 3.33337 6.66724 3.03467 6.66724 2.66663V2C6.66724 1.63269 6.96655 1.33337 7.33398 1.33337H10.4399L10.2366 1.40137C9.69666 1.58801 9.33398 2.09668 9.33398 2.66663V12.6666H7.33398C6.96655 12.6666 6.66724 12.3673 6.66724 12V10.6666C6.66724 10.2987 6.36865 10 6.00061 10C5.63257 10 5.33398 10.2987 5.33398 10.6666V12C5.33398 13.1027 6.23132 14 7.33398 14H9.33398V14.6666C9.33398 15.402 9.93188 16 10.6672 16C10.8099 16 10.9453 15.9794 11.0919 15.934L15.0973 14.5986C15.6379 14.412 16.0006 13.9033 16.0006 13.3334V1.33337C16.0006 0.55603 15.3306 -0.0533447 14.5486 0.0100097V0.0100097Z" fill="#004E9B"/>
<path d="M7.13794 6.19487L4.47131 3.52824C4.28064 3.33757 3.99402 3.28019 3.74463 3.38359C3.49597 3.48686 3.33337 3.73027 3.33337 3.99956V5.99956H0.666626C0.298706 5.99956 0 6.29826 0 6.66618C0 7.03422 0.298706 7.33293 0.666626 7.33293H3.33337V9.33293C3.33337 9.60222 3.49597 9.8455 3.74463 9.9489C3.99402 10.0522 4.28064 9.99492 4.47131 9.80424L7.13794 7.13749C7.39868 6.87687 7.39868 6.45561 7.13794 6.19487Z" fill="#004E9B"/>
</svg>
