<svg width="16" height="16" viewBox="0 0 16 16" fill="none" xmlns="http://www.w3.org/2000/svg">
<g clip-path="url(#clip0_84:74)">
<path d="M10.4147 3.21289L5.62728 5.93375C4.48814 4.5886 2.47425 4.4216 1.1291 5.56074C-0.216053 6.69988 -0.383052 8.71377 0.75609 10.0589C1.89523 11.4041 3.90912 11.5711 5.25427 10.4319C5.38869 10.3181 5.51346 10.1933 5.62728 10.0589L10.4147 12.7877V11.1919L6.29751 8.83813C6.46616 8.2896 6.46616 7.70307 6.29751 7.15457L10.4147 4.80874V3.21289ZM3.23357 9.7477C2.2685 9.7477 1.48617 8.96537 1.48617 8.0003C1.48617 7.03522 2.2685 6.25289 3.23357 6.25289C4.19865 6.25289 4.98098 7.03522 4.98098 8.0003C4.98098 8.96537 4.19865 9.7477 3.23357 9.7477Z" fill="#145FAA"/>
<path d="M12.8088 0.0214844C11.0461 0.0214844 9.61719 1.45041 9.61719 3.21308C9.61719 4.97574 11.0461 6.40467 12.8088 6.40467C14.5714 6.40467 16.0004 4.97574 16.0004 3.21308C16.0004 1.45041 14.5714 0.0214844 12.8088 0.0214844ZM12.8088 4.96048C11.8437 4.96048 11.0614 4.17815 11.0614 3.21308C11.0614 2.248 11.8437 1.46567 12.8088 1.46567C13.7739 1.46567 14.5562 2.248 14.5562 3.21308C14.5562 4.17815 13.7739 4.96048 12.8088 4.96048Z" fill="#145FAA"/>
<path d="M12.8088 9.5957C11.0461 9.5957 9.61719 11.0246 9.61719 12.7873C9.61719 14.55 11.0461 15.9789 12.8088 15.9789C14.5714 15.9789 16.0004 14.55 16.0004 12.7873C16.0004 11.0246 14.5714 9.5957 12.8088 9.5957ZM12.8088 14.5347C11.8437 14.5347 11.0614 13.7524 11.0614 12.7873C11.0614 11.8222 11.8437 11.0399 12.8088 11.0399C13.7739 11.0399 14.5562 11.8222 14.5562 12.7873C14.5562 13.7524 13.7739 14.5347 12.8088 14.5347Z" fill="#145FAA"/>
</g>
<defs>
<clipPath id="clip0_84:74">
<rect width="16" height="16" fill="white"/>
</clipPath>
</defs>
</svg>
