<svg width="20" height="20" viewBox="0 0 20 20" fill="none" xmlns="http://www.w3.org/2000/svg">
<g clip-path="url(#clip0_63:3717)">
<path d="M19.4323 4.77152C19.3947 4.77023 18.6222 4.74415 17.4884 4.76921V2.44443C17.4884 2.10172 17.1957 1.82992 16.8512 1.85823C14.5903 2.04697 11.7139 3.04599 10 4.86815C8.28612 3.04599 5.40969 2.04697 3.14882 1.85823C2.8049 1.83023 2.51165 2.10082 2.51165 2.44443V4.83207C1.86741 4.80776 1.25804 4.79062 0.605686 4.77145C0.276667 4.76105 0 5.02607 0 5.35941V16.072C0 16.3815 0.239882 16.6381 0.548745 16.6589C2.88867 16.8163 6.80824 16.8341 9.76926 18.097C10.0331 18.2097 10.27 18.0802 10.2308 18.097C13.1918 16.8341 17.1106 16.8164 19.4513 16.6589C19.7602 16.6381 20.0001 16.3815 20.0001 16.072V5.35941C20 5.0425 19.749 4.78258 19.4323 4.77152V4.77152ZM16.3119 3.10603V13.1879C14.6156 13.5674 12.4658 14.3771 10.5882 16.094C10.5882 15.5762 10.5882 6.26282 10.5882 5.98274C11.8753 4.37686 14.3128 3.40894 16.3119 3.10603V3.10603ZM3.68812 3.10603C5.68722 3.40894 8.12471 4.37686 9.41177 5.98274V16.094C7.5342 14.3771 5.38443 13.5674 3.68812 13.1879V3.10603ZM1.17647 15.5184V5.96521C1.59769 5.97768 2.0482 5.99176 2.51165 6.00945V13.6674C2.51165 13.9504 2.71322 14.1933 2.99137 14.2455C4.33455 14.4976 6.08122 15.0448 7.70914 16.2231C5.38659 15.7022 2.95553 15.6185 1.17647 15.5184ZM18.8235 15.5184C17.0474 15.6183 14.6143 15.702 12.2908 16.2231C13.9187 15.0448 15.6655 14.4976 17.0086 14.2455C17.2867 14.1933 17.4883 13.9504 17.4883 13.6674V5.94607C18.0297 5.93396 18.4909 5.9338 18.8235 5.93682V15.5184H18.8235Z" fill="#145FAA"/>
<path d="M7.88673 7.33775C7.43113 7.02034 6.64568 6.63073 5.80744 6.48908C5.48725 6.43473 5.18356 6.65077 5.12941 6.97109C5.07529 7.2914 5.29109 7.59497 5.61144 7.64909C6.25862 7.75846 6.87932 8.06971 7.21423 8.30305C7.4807 8.4887 7.84736 8.42328 8.03313 8.15666C8.21881 7.89011 8.15328 7.52344 7.88673 7.33775V7.33775Z" fill="#145FAA"/>
<path d="M7.82784 10.6505C7.40866 10.3945 6.58878 9.94532 5.80745 9.81328C5.48725 9.75901 5.18356 9.97493 5.12941 10.2953C5.07529 10.6156 5.29109 10.9192 5.61145 10.9733C6.22011 11.0762 6.93537 11.4839 7.21462 11.6545C7.49223 11.824 7.85411 11.736 8.02325 11.4591C8.19258 11.1818 8.10509 10.8198 7.82784 10.6505V10.6505Z" fill="#145FAA"/>
<path d="M12.7859 8.30308C13.1208 8.06974 13.7415 7.75849 14.3886 7.64911C14.709 7.595 14.9248 7.29143 14.8707 6.97111C14.8166 6.65076 14.5129 6.43464 14.1926 6.48911C13.3544 6.63072 12.569 7.02037 12.1133 7.33778C11.8468 7.52347 11.7813 7.89013 11.967 8.15668C12.1528 8.42339 12.5195 8.48864 12.7859 8.30308V8.30308Z" fill="#145FAA"/>
<path d="M14.1927 9.81333C13.4114 9.94533 12.5915 10.3945 12.1723 10.6505C11.8951 10.8198 11.8076 11.1819 11.9769 11.4591C12.1463 11.7364 12.5083 11.8239 12.7856 11.6546C13.0648 11.484 13.7801 11.0762 14.3887 10.9733C14.7091 10.9192 14.9249 10.6157 14.8708 10.2953C14.8166 9.97498 14.513 9.75886 14.1927 9.81333V9.81333Z" fill="#145FAA"/>
</g>
<defs>
<clipPath id="clip0_63:3717">
<rect width="20" height="20" fill="white"/>
</clipPath>
</defs>
</svg>
