<svg width="50" height="50" viewBox="0 0 50 50" fill="none" xmlns="http://www.w3.org/2000/svg">
<path d="M39.4795 30.8006C38.4985 28.7546 34.9875 25.9156 31.5965 23.1716C29.7045 21.6426 27.9175 20.1966 26.7775 19.0566C26.6378 18.9165 26.461 18.8192 26.268 18.776C26.0749 18.7328 25.8736 18.7455 25.6875 18.8126C24.9875 19.0666 24.5525 19.2626 24.2105 19.4126C23.7763 19.6382 23.2991 19.7688 22.8105 19.7956C22.6575 19.8106 22.5098 19.8592 22.3779 19.938C22.2459 20.0169 22.1331 20.124 22.0475 20.2516C20.5745 22.4516 19.0475 22.2666 18.0305 21.9246C17.7055 21.8166 17.6475 21.6766 17.6155 21.5436C17.3965 20.6286 18.4945 18.4996 19.9155 17.0766C23.3005 13.6886 25.0465 12.8416 28.7345 14.4886C32.9175 16.3596 37.1095 17.8236 37.1515 17.8386C37.2818 17.8897 37.4211 17.9141 37.5611 17.9102C37.7011 17.9063 37.8388 17.8743 37.9661 17.816C38.0934 17.7576 38.2077 17.6743 38.3021 17.5708C38.3964 17.4674 38.469 17.346 38.5153 17.2138C38.5617 17.0817 38.581 16.9416 38.5721 16.8019C38.5631 16.6621 38.5261 16.5257 38.4632 16.4006C38.4003 16.2754 38.3128 16.1643 38.206 16.0738C38.0992 15.9832 37.9752 15.9151 37.8415 15.8736C37.7995 15.8586 33.6915 14.4236 29.5915 12.5886C24.8145 10.4536 22.1915 11.8596 18.4495 15.6056C17.0245 17.0306 15.0895 19.9136 15.5895 22.0286C15.6953 22.4718 15.9167 22.879 16.2311 23.2087C16.5456 23.5384 16.9418 23.7789 17.3795 23.9056C18.4869 24.2958 19.6936 24.3007 20.8041 23.9196C21.9147 23.5385 22.8641 22.7936 23.4985 21.8056C24.0431 21.7219 24.5712 21.5532 25.0635 21.3056C25.2635 21.2186 25.4885 21.1156 25.7925 20.9936C26.9845 22.1126 28.5925 23.4146 30.2865 24.7836C33.3495 27.2606 36.8215 30.0686 37.6035 31.6936C37.7481 31.9483 37.7963 32.2464 37.7394 32.5337C37.6825 32.821 37.5243 33.0783 37.2935 33.2586C37.1307 33.4261 36.9206 33.5401 36.6914 33.5851C36.4621 33.6301 36.2246 33.6041 36.0105 33.5106C35.8464 33.3971 35.6531 33.3331 35.4537 33.3264C35.2543 33.3196 35.0571 33.3703 34.8857 33.4724C34.7142 33.5745 34.5758 33.7237 34.4867 33.9023C34.3977 34.0808 34.3619 34.2812 34.3835 34.4796C34.3838 34.7329 34.3075 34.9804 34.1648 35.1897C34.022 35.399 33.8194 35.5603 33.5835 35.6526C33.3409 35.803 33.0624 35.8857 32.777 35.8922C32.4916 35.8987 32.2097 35.8288 31.9605 35.6896C31.8182 35.5564 31.6414 35.4659 31.4502 35.4282C31.259 35.3906 31.0611 35.4074 30.879 35.4767C30.6969 35.5459 30.5378 35.665 30.42 35.8202C30.3022 35.9754 30.2303 36.1605 30.2125 36.3546C30.17 36.707 30.0334 37.0415 29.8172 37.323C29.601 37.6045 29.313 37.8226 28.9835 37.9546C28.7874 38.0449 28.569 38.0755 28.3556 38.0426C28.1423 38.0097 27.9433 37.9148 27.7835 37.7696C27.6564 37.655 27.5033 37.5731 27.3374 37.5309C27.1715 37.4887 26.9979 37.4876 26.8315 37.5276C26.665 37.5682 26.5112 37.6494 26.3837 37.7638C26.2561 37.8783 26.1589 38.0225 26.1005 38.1836C26.0605 38.2836 25.9715 38.5376 25.0005 38.5376C24.0946 38.444 23.2219 38.1455 22.4485 37.6646C21.7175 37.1836 17.1315 33.7646 13.1715 30.4456C12.6155 29.9766 11.6525 28.9726 10.8025 28.0856C10.0485 27.2976 9.35849 26.5856 9.00249 26.2856C8.79137 26.1071 8.518 26.0198 8.24251 26.0428C7.96702 26.0659 7.71198 26.1975 7.53349 26.4086C7.355 26.6197 7.26768 26.8931 7.29075 27.1686C7.31381 27.444 7.44537 27.6991 7.65649 27.8776C7.97949 28.1506 8.60449 28.8106 9.29349 29.5296C10.2225 30.5006 11.1835 31.5046 11.8285 32.0466C15.7075 35.2946 20.3705 38.8006 21.2995 39.4116C22.414 40.1148 23.685 40.5315 24.9995 40.6246C25.8458 40.6783 26.6838 40.4303 27.3645 39.9246C28.129 40.2153 28.9752 40.2064 29.7335 39.8996C30.6796 39.5252 31.4527 38.8123 31.9025 37.8996C32.7917 38.0715 33.713 37.9387 34.5175 37.5226C35.3007 37.1508 35.9199 36.5041 36.2575 35.7056C37.1347 35.7388 37.9908 35.4322 38.6475 34.8496C39.2247 34.369 39.6215 33.7065 39.7727 32.9708C39.9239 32.2351 39.8205 31.4698 39.4795 30.8006Z" fill="white"/>
<path d="M20.834 13.5405H11.459C11.3196 13.5362 11.1806 13.56 11.0505 13.6104C10.9203 13.6607 10.8017 13.7368 10.7015 13.8339C10.6013 13.931 10.5216 14.0473 10.4672 14.1758C10.4128 14.3044 10.3848 14.4425 10.3848 14.582C10.3848 14.7216 10.4128 14.8597 10.4672 14.9882C10.5216 15.1168 10.6013 15.233 10.7015 15.3302C10.8017 15.4273 10.9203 15.5033 11.0505 15.5537C11.1806 15.6041 11.3196 15.6279 11.459 15.6235H20.834C20.9735 15.6279 21.1125 15.6041 21.2426 15.5537C21.3727 15.5033 21.4914 15.4273 21.5916 15.3302C21.6918 15.233 21.7715 15.1168 21.8259 14.9882C21.8803 14.8597 21.9083 14.7216 21.9083 14.582C21.9083 14.4425 21.8803 14.3044 21.8259 14.1758C21.7715 14.0473 21.6918 13.931 21.5916 13.8339C21.4914 13.7368 21.3727 13.6607 21.2426 13.6104C21.1125 13.56 20.9735 13.5362 20.834 13.5405Z" fill="white"/>
<path d="M42.5313 28.5845C42.4551 28.4707 42.3573 28.3731 42.2433 28.2972C42.1293 28.2213 42.0015 28.1687 41.8671 28.1424C41.7327 28.1161 41.5945 28.1166 41.4603 28.1439C41.3261 28.1712 41.1987 28.2248 41.0853 28.3015L38.0393 30.3475C37.8257 30.508 37.6819 30.7443 37.6375 31.0077C37.5932 31.2711 37.6517 31.5414 37.8009 31.763C37.9502 31.9845 38.1788 32.1402 38.4396 32.198C38.7004 32.2558 38.9734 32.2113 39.2023 32.0735L42.2483 30.0275C42.4764 29.8732 42.6343 29.6348 42.6873 29.3644C42.7403 29.094 42.6842 28.8137 42.5313 28.5845Z" fill="white"/>
<path d="M36.0644 33.5547C35.3184 32.9677 31.9834 29.5547 29.9204 27.4027C29.8281 27.2952 29.7148 27.2076 29.5874 27.1454C29.46 27.0831 29.3213 27.0475 29.1797 27.0407C29.0381 27.034 28.8966 27.0562 28.7639 27.106C28.6311 27.1558 28.51 27.2321 28.4078 27.3304C28.3056 27.4286 28.2245 27.5467 28.1695 27.6773C28.1145 27.808 28.0867 27.9485 28.0879 28.0903C28.0891 28.232 28.1192 28.3721 28.1764 28.5018C28.2336 28.6315 28.3166 28.7482 28.4204 28.8447C28.9554 29.4027 33.6784 34.3257 34.7764 35.1927C34.9598 35.3375 35.1868 35.4161 35.4204 35.4157C35.5785 35.415 35.7344 35.3786 35.8766 35.3094C36.0187 35.2401 36.1434 35.1398 36.2414 35.0157C36.4116 34.7985 36.4886 34.5226 36.4554 34.2486C36.4222 33.9746 36.2816 33.7251 36.0644 33.5547Z" fill="white"/>
<path d="M31.8997 35.6447C30.6517 34.6447 27.5167 31.3157 26.8077 30.5447C26.7151 30.4439 26.6036 30.3623 26.4795 30.3046C26.3554 30.2469 26.2211 30.2143 26.0844 30.2085C25.9477 30.2027 25.8111 30.2238 25.6826 30.2708C25.554 30.3178 25.436 30.3896 25.3352 30.4822C25.2344 30.5748 25.1528 30.6863 25.0952 30.8104C25.0375 30.9345 25.0048 31.0687 24.999 31.2055C24.9932 31.3422 25.0144 31.4788 25.0613 31.6073C25.1083 31.7358 25.1801 31.8539 25.2727 31.9547C25.3107 31.9947 29.0517 36.0337 30.5977 37.2717C30.8145 37.4321 31.085 37.5023 31.3524 37.4674C31.6199 37.4325 31.8633 37.2953 32.0317 37.0846C32.2 36.8739 32.2801 36.6061 32.2551 36.3376C32.2302 36.0691 32.102 35.8207 31.8977 35.6447H31.8997Z" fill="white"/>
<path d="M27.7554 37.7405C26.2694 36.4905 23.2324 33.2555 22.6324 32.6195C22.5418 32.5099 22.4297 32.4199 22.3031 32.3552C22.1764 32.2905 22.0378 32.2525 21.8959 32.2434C21.7539 32.2342 21.6116 32.2543 21.4777 32.3023C21.3438 32.3502 21.2211 32.4251 21.1173 32.5223C21.0134 32.6194 20.9305 32.7368 20.8737 32.8673C20.8169 32.9977 20.7875 33.1383 20.7871 33.2806C20.7868 33.4228 20.8155 33.5636 20.8716 33.6943C20.9278 33.825 21.01 33.9429 21.1134 34.0405C21.9674 34.9555 24.8764 38.0405 26.4134 39.3345C26.6254 39.507 26.8967 39.5892 27.1688 39.5635C27.4409 39.5378 27.692 39.4063 27.868 39.1972C28.044 38.9882 28.1308 38.7183 28.1098 38.4459C28.0887 38.1734 27.9615 37.9201 27.7554 37.7405Z" fill="white"/>
<path d="M12.175 11.7427C10.39 10.0517 3.25 9.50367 1.1 9.37667C0.95858 9.36865 0.81701 9.38956 0.683955 9.43815C0.5509 9.48673 0.429159 9.56195 0.326184 9.65922C0.22321 9.75648 0.141169 9.87374 0.0850824 10.0038C0.028996 10.1339 4.44539e-05 10.274 0 10.4157L0 29.1657C0 29.442 0.109782 29.7071 0.305195 29.9025C0.500608 30.0979 0.765644 30.2077 1.042 30.2077H7.292C7.51179 30.2077 7.72594 30.1381 7.90378 30.009C8.08162 29.8798 8.21401 29.6977 8.282 29.4887C8.434 29.0217 12.024 18.0057 12.497 12.5887C12.5108 12.4325 12.4891 12.2752 12.4333 12.1286C12.3775 11.9821 12.2892 11.8501 12.175 11.7427ZM6.531 28.1247H2.083V11.5327C5.431 11.7977 9.043 12.3727 10.356 13.0097C9.8 17.5717 7.306 25.6787 6.531 28.1247Z" fill="white"/>
<path d="M48.9571 11.4575C40.7781 11.4575 36.2401 13.5515 36.0511 13.6385C35.9177 13.7008 35.7991 13.7908 35.7032 13.9026C35.6073 14.0143 35.5364 14.1452 35.4951 14.2865C35.4539 14.4277 35.4429 14.576 35.4627 14.7217C35.4825 14.8675 35.5327 15.0074 35.6101 15.1325C36.8971 17.2075 40.9261 28.7175 41.7031 31.5265C41.7633 31.7457 41.8937 31.9392 42.0743 32.0773C42.2549 32.2155 42.4757 32.2907 42.7031 32.2915H48.9531C49.2294 32.2915 49.4945 32.1817 49.6899 31.9863C49.8853 31.7909 49.9951 31.5259 49.9951 31.2495V12.4985C49.9951 12.2229 49.8858 11.9586 49.6912 11.7635C49.4966 11.5683 49.2326 11.4583 48.9571 11.4575ZM47.9161 30.2075H43.4861C42.4981 26.9905 39.5861 18.6075 37.9551 15.1365C41.1777 14.1156 44.5347 13.5821 47.9151 13.5535L47.9161 30.2075Z" fill="white"/>
</svg>
