<svg width="16" height="16" viewBox="0 0 16 16" fill="none" xmlns="http://www.w3.org/2000/svg">
<path d="M13.6569 2.34316C12.1458 0.832156 10.1369 0 8 0C5.86313 0 3.85416 0.832156 2.34313 2.34316C0.832156 3.85416 0 5.86313 0 8C0 10.1369 0.832156 12.1458 2.34313 13.6568C3.85416 15.1678 5.86313 16 8 16C10.1369 16 12.1458 15.1678 13.6569 13.6568C15.1678 12.1458 16 10.1369 16 8C16 5.86313 15.1678 3.85416 13.6569 2.34316ZM8 15.0625C5.91034 15.0625 4.03009 14.1499 2.73587 12.7028C3.53822 10.5757 5.59212 9.0625 8 9.0625C6.44669 9.0625 5.1875 7.80331 5.1875 6.25C5.1875 4.69669 6.44669 3.4375 8 3.4375C9.55331 3.4375 10.8125 4.69669 10.8125 6.25C10.8125 7.80331 9.55331 9.0625 8 9.0625C10.4079 9.0625 12.4618 10.5757 13.2641 12.7028C11.9699 14.1499 10.0897 15.0625 8 15.0625Z" fill="#145FAA"/>
</svg>
