<svg width="16" height="16" viewBox="0 0 16 16" fill="none" xmlns="http://www.w3.org/2000/svg">
<path d="M8 0C4.62266 0 1.875 2.74766 1.875 6.125C1.875 7.20606 2.16062 8.26891 2.70097 9.19859C2.82694 9.41534 2.96775 9.62656 3.11956 9.82641L7.73387 16H8.26609L12.8804 9.82644C13.0322 9.62656 13.173 9.41537 13.299 9.19862C13.8394 8.26891 14.125 7.20606 14.125 6.125C14.125 2.74766 11.3773 0 8 0ZM8 8.15625C6.87997 8.15625 5.96875 7.24503 5.96875 6.125C5.96875 5.00497 6.87997 4.09375 8 4.09375C9.12003 4.09375 10.0312 5.00497 10.0312 6.125C10.0312 7.24503 9.12003 8.15625 8 8.15625Z" fill="#145FAA"/>
</svg>
