<svg width="16" height="16" viewBox="0 0 16 16" fill="none" xmlns="http://www.w3.org/2000/svg">
<g clip-path="url(#clip0_5:3202)">
<path d="M8.00025 1.875C7.87586 1.875 7.75657 1.92441 7.66862 2.01237C7.58066 2.10032 7.53125 2.21961 7.53125 2.344C7.53125 2.46839 7.58066 2.58768 7.66862 2.67563C7.75657 2.76359 7.87586 2.813 8.00025 2.813C8.74606 2.81379 9.4611 3.11042 9.98846 3.63779C10.5158 4.16515 10.8125 4.88019 10.8132 5.626C10.8132 5.75039 10.8627 5.86968 10.9506 5.95763C11.0386 6.04559 11.1579 6.095 11.2822 6.095C11.4066 6.095 11.5259 6.04559 11.6139 5.95763C11.7018 5.86968 11.7513 5.75039 11.7513 5.626C11.7505 4.63142 11.355 3.6778 10.6517 2.97452C9.94845 2.27124 8.99483 1.87579 8.00025 1.875Z" fill="#F89E1B"/>
<path d="M6.79213 0.125855C5.83314 0.335198 4.94566 0.791976 4.21799 1.45075C3.49031 2.10953 2.9478 2.94735 2.64441 3.88087C2.34103 4.81439 2.28734 5.81107 2.4887 6.77177C2.69005 7.73248 3.13943 8.62372 3.79213 9.35686C4.37936 10.0166 4.70763 10.8667 4.71613 11.7499V12.6879C4.71651 12.9847 4.81072 13.2739 4.98528 13.514C5.15985 13.7541 5.40585 13.9329 5.68813 14.0249C5.77484 14.5751 6.05513 15.0762 6.47853 15.4381C6.90193 15.8001 7.44063 15.9989 7.99763 15.9989C8.55463 15.9989 9.09333 15.8001 9.51674 15.4381C9.94014 15.0762 10.2204 14.5751 10.3071 14.0249C10.5893 13.9328 10.8352 13.754 11.0098 13.5139C11.1843 13.2738 11.2786 12.9847 11.2791 12.6879V11.7499C11.292 10.8533 11.6299 9.99194 12.2301 9.32586C13.0098 8.43459 13.4884 7.32003 13.5977 6.14091C13.707 4.9618 13.4415 3.77826 12.8389 2.75886C12.2363 1.73946 11.3275 0.936173 10.2418 0.463414C9.15608 -0.00934523 7.94889 -0.127473 6.79213 0.125855ZM8.00013 15.0619C7.70611 15.0554 7.4212 14.9586 7.184 14.7848C6.94681 14.6109 6.76881 14.3683 6.67413 14.0899H9.32613C9.23146 14.3683 9.05346 14.6109 8.81626 14.7848C8.57907 14.9586 8.29416 15.0554 8.00013 15.0619ZM10.3441 12.6869C10.3441 12.8112 10.2947 12.9305 10.2068 13.0185C10.1188 13.1064 9.99952 13.1559 9.87513 13.1559H6.12513C6.00075 13.1559 5.88145 13.1064 5.7935 13.0185C5.70555 12.9305 5.65613 12.8112 5.65613 12.6869V12.2179H10.3441V12.6869ZM11.5281 8.70786C10.8877 9.42668 10.4835 10.3248 10.3701 11.2809H5.63113C5.52453 10.3359 5.12965 9.44663 4.50013 8.73386C3.90125 8.05949 3.50966 7.22666 3.37233 6.33527C3.235 5.44389 3.35777 4.53181 3.7259 3.70846C4.09404 2.88511 4.69191 2.18546 5.44779 1.69345C6.20367 1.20144 7.08545 0.937962 7.98734 0.934627C8.88924 0.931293 9.77295 1.18824 10.5324 1.67465C11.2919 2.16106 11.895 2.85627 12.2692 3.67687C12.6434 4.49748 12.7729 5.40862 12.6422 6.301C12.5114 7.19337 12.126 8.02908 11.5321 8.70786H11.5281Z" fill="#F89E1B"/>
<path d="M1.406 5.625H0.469C0.344613 5.625 0.225321 5.67441 0.137367 5.76237C0.0494124 5.85032 0 5.96961 0 6.094C0 6.21839 0.0494124 6.33768 0.137367 6.42563C0.225321 6.51359 0.344613 6.563 0.469 6.563H1.407C1.52751 6.55743 1.64124 6.50564 1.72455 6.41839C1.80786 6.33114 1.85435 6.21514 1.85435 6.0945C1.85435 5.97386 1.80786 5.85786 1.72455 5.77061C1.64124 5.68336 1.52751 5.63157 1.407 5.626L1.406 5.625Z" fill="#F89E1B"/>
<path d="M1.59959 3.28085L0.93759 2.61785C0.848852 2.534 0.730915 2.48806 0.608841 2.48979C0.486767 2.49152 0.370179 2.54079 0.283851 2.62711C0.197524 2.71344 0.148261 2.83003 0.146531 2.9521C0.144802 3.07418 0.190743 3.19211 0.27459 3.28085L0.93759 3.94385C1.02684 4.02479 1.14382 4.06827 1.26427 4.06529C1.38472 4.0623 1.4994 4.01307 1.58453 3.92781C1.66966 3.84255 1.71871 3.7278 1.72152 3.60735C1.72432 3.48689 1.68066 3.36998 1.59959 3.28085Z" fill="#F89E1B"/>
<path d="M1.60059 8.2427C1.51265 8.15483 1.39341 8.10547 1.26909 8.10547C1.14477 8.10547 1.02553 8.15483 0.93759 8.2427L0.27459 8.9057C0.190742 8.99444 0.144802 9.11238 0.146531 9.23445C0.148261 9.35653 0.197524 9.47311 0.283851 9.55944C0.370179 9.64577 0.486767 9.69503 0.608841 9.69676C0.730915 9.69849 0.848852 9.65255 0.93759 9.5687L1.60059 8.9057C1.68846 8.81776 1.73782 8.69852 1.73782 8.5742C1.73782 8.44988 1.68846 8.33065 1.60059 8.2427Z" fill="#F89E1B"/>
<path d="M15.531 5.625H14.594C14.4696 5.625 14.3503 5.67441 14.2624 5.76237C14.1744 5.85032 14.125 5.96961 14.125 6.094C14.125 6.21839 14.1744 6.33768 14.2624 6.42563C14.3503 6.51359 14.4696 6.563 14.594 6.563H15.532C15.6525 6.55743 15.7662 6.50564 15.8496 6.41839C15.9329 6.33114 15.9793 6.21514 15.9793 6.0945C15.9793 5.97386 15.9329 5.85786 15.8496 5.77061C15.7662 5.68336 15.6525 5.63157 15.532 5.626L15.531 5.625Z" fill="#F89E1B"/>
<path d="M15.7248 2.6177C15.6369 2.52983 15.5177 2.48047 15.3933 2.48047C15.269 2.48047 15.1498 2.52983 15.0618 2.6177L14.3988 3.2807C14.3533 3.32377 14.3168 3.37554 14.2916 3.43295C14.2663 3.49036 14.2529 3.55225 14.252 3.61495C14.2511 3.67766 14.2628 3.7399 14.2864 3.798C14.31 3.85611 14.345 3.90889 14.3893 3.95323C14.4337 3.99757 14.4864 4.03257 14.5445 4.05616C14.6027 4.07974 14.6649 4.09144 14.7276 4.09055C14.7903 4.08966 14.8522 4.07621 14.9096 4.05099C14.967 4.02576 15.0188 3.98928 15.0618 3.9437L15.7248 3.2807C15.8127 3.19276 15.8621 3.07352 15.8621 2.9492C15.8621 2.82488 15.8127 2.70565 15.7248 2.6177Z" fill="#F89E1B"/>
<path d="M15.7256 8.90585L15.0626 8.24285C14.9739 8.159 14.8559 8.11306 14.7338 8.11479C14.6118 8.11652 14.4952 8.16578 14.4089 8.25211C14.3225 8.33844 14.2733 8.45503 14.2715 8.5771C14.2698 8.69918 14.3157 8.81711 14.3996 8.90585L15.0626 9.56885C15.1513 9.6527 15.2693 9.69864 15.3913 9.69691C15.5134 9.69518 15.63 9.64592 15.7163 9.55959C15.8027 9.47326 15.8519 9.35667 15.8536 9.2346C15.8554 9.11253 15.8094 8.99459 15.7256 8.90585Z" fill="#F89E1B"/>
</g>
<defs>
<clipPath id="clip0_5:3202">
<rect width="16" height="16" fill="white"/>
</clipPath>
</defs>
</svg>
