<svg width="26" height="26" viewBox="0 0 26 26" fill="none" xmlns="http://www.w3.org/2000/svg">
<path fill-rule="evenodd" clip-rule="evenodd" d="M19.5 13.4908C19.5 14.5429 19.37 15.5951 19.37 15.5951C19.37 15.5951 19.2432 16.4905 18.8533 16.8854C18.3593 17.4029 17.8051 17.4054 17.5508 17.4354C15.7316 17.5671 13 17.5711 13 17.5711C13 17.5711 9.62 17.5402 8.58 17.4411C8.29075 17.3867 7.64075 17.4029 7.14675 16.8854C6.75675 16.4905 6.63 15.5951 6.63 15.5951C6.63 15.5951 6.5 14.5429 6.5 13.4908V12.5044C6.5 11.4522 6.63 10.4008 6.63 10.4008C6.63 10.4008 6.75675 9.50463 7.14675 9.10975C7.64075 8.59219 8.19487 8.58975 8.44919 8.55969C10.2684 8.42806 12.9976 8.42806 12.9976 8.42806H13.0024C13.0024 8.42806 15.7316 8.42806 17.5508 8.55969C17.8051 8.58975 18.3593 8.59219 18.8533 9.10975C19.2432 9.50463 19.37 10.4008 19.37 10.4008C19.37 10.4008 19.5 11.4522 19.5 12.5044V13.4908ZM13 0C5.81994 0 0 5.81994 0 13C0 20.1793 5.81994 26 13 26C20.1801 26 26 20.1793 26 13C26 5.81994 20.1801 0 13 0Z" fill="#EA412C"/>
<path fill-rule="evenodd" clip-rule="evenodd" d="M11.6571 14.6862L15.1695 12.8662L11.6562 11.0332L11.6571 14.6862Z" fill="#EA412C"/>
</svg>
